<svg width="820" height="803" viewBox="0 0 820 803" fill="none" xmlns="http://www.w3.org/2000/svg">
<g filter="url(#filter0_d_0_259)">
<path fill-rule="evenodd" clip-rule="evenodd" d="M118.207 271.399C81.9673 271.399 63.8192 315.215 89.4454 340.839L223.729 475.113C242.483 493.865 267.917 504.399 294.437 504.399H365.13C391.65 504.399 417.084 514.934 435.838 533.686L596.877 694.713C615.631 713.465 641.065 724 667.585 724H1056.44C1128.97 724 1165.3 636.302 1114 585.015L1027.61 498.63C1008.2 479.22 1021.95 446.03 1049.4 446.03C1076.85 446.03 1090.6 412.841 1071.19 393.431L875.851 198.111C857.097 179.359 831.663 168.824 805.143 168.824H570.701C544.18 168.824 518.746 158.289 499.993 139.537L464.74 104.287C445.986 85.5346 420.552 75 394.032 75H158.88C107.632 75 81.9673 136.963 118.207 173.199L146.968 201.959C172.595 227.583 154.447 271.399 118.207 271.399Z" fill="#2D314D"/>
</g>
<defs>
<filter id="filter0_d_0_259" x="0.448975" y="0" width="1214.57" height="803" filterUnits="userSpaceOnUse" color-interpolation-filters="sRGB">
<feFlood flood-opacity="0" result="BackgroundImageFix"/>
<feColorMatrix in="SourceAlpha" type="matrix" values="0 0 0 0 0 0 0 0 0 0 0 0 0 0 0 0 0 0 127 0" result="hardAlpha"/>
<feOffset dy="2"/>
<feGaussianBlur stdDeviation="38.5"/>
<feColorMatrix type="matrix" values="0 0 0 0 0 0 0 0 0 0 0 0 0 0 0 0 0 0 0.0240111 0"/>
<feBlend mode="normal" in2="BackgroundImageFix" result="effect1_dropShadow_0_259"/>
<feBlend mode="normal" in="SourceGraphic" in2="effect1_dropShadow_0_259" result="shape"/>
</filter>
</defs>
</svg>
