<svg width="605" height="469" viewBox="0 0 605 469" fill="none" xmlns="http://www.w3.org/2000/svg">
<path fill-rule="evenodd" clip-rule="evenodd" d="M41.2069 16.399C4.96733 16.399 -13.1808 60.2148 12.4454 85.8391L146.729 220.113C165.483 238.865 190.917 249.399 217.437 249.399H288.13C314.65 249.399 340.084 259.934 358.838 278.686L519.877 439.713C538.631 458.465 564.065 469 590.585 469H979.438C1051.97 469 1088.3 381.302 1037 330.015L950.613 243.63C931.202 224.22 944.949 191.03 972.399 191.03C999.85 191.03 1013.6 157.841 994.186 138.431L798.851 -56.8895C780.097 -75.6415 754.663 -86.1761 728.143 -86.1761H493.701C467.18 -86.1761 441.746 -96.7108 422.993 -115.463L387.74 -150.713C368.986 -169.465 343.552 -180 317.032 -180H81.8805C30.6319 -180 4.96734 -118.037 41.2069 -81.8005L69.9685 -53.0412C95.5947 -27.4169 77.4466 16.399 41.2069 16.399Z" fill="url(#paint0_linear_0_260)"/>
<defs>
<linearGradient id="paint0_linear_0_260" x1="-670.913" y1="143.138" x2="-138.166" y2="1155.28" gradientUnits="userSpaceOnUse">
<stop stop-color="#33D35E"/>
<stop offset="1" stop-color="#2AB6D9"/>
</linearGradient>
</defs>
</svg>
