<svg width="160" height="188" viewBox="0 0 160 188" fill="none" xmlns="http://www.w3.org/2000/svg">
<g id="Group 7 Copy 3">
<g id="iPhone-X-Mockup">
<g id="phone">
<g id="body" filter="url(#filter0_d_0_2730)">
<path fill-rule="evenodd" clip-rule="evenodd" d="M42.8858 -56.778H116.964C124.068 -56.778 129.828 -51.2262 129.828 -44.3777V125.378C129.828 132.226 124.068 137.778 116.964 137.778H42.8858C35.7813 137.778 30.022 132.226 30.022 125.378V-44.3777C30.022 -51.2262 35.7813 -56.778 42.8858 -56.778Z" fill="#000105"/>
</g>
<g id="frame">
<path id="reflect-frame-bottom-2" opacity="0.695312" fill-rule="evenodd" clip-rule="evenodd" d="M117.251 137.771H42.5554C38.9272 137.621 35.7991 136.321 33.3452 133.704C35.2392 135.21 38.179 136.944 42.6453 136.944C42.6453 136.944 114.183 136.944 117.161 136.944C121.627 136.944 124.833 134.953 126.727 133.447C124.164 136.26 120.965 137.63 117.251 137.771Z" fill="url(#paint0_linear_0_2730)" fill-opacity="0.65"/>
<path id="reflect-frame-bottom" opacity="0.602468" fill-rule="evenodd" clip-rule="evenodd" d="M33.8776 134.152C35.9933 135.854 38.6825 136.873 41.6097 136.873H119.029C121.59 136.873 123.969 136.093 125.94 134.758C123.745 136.769 120.82 137.995 117.608 137.995H42.8276C39.3046 137.995 36.1263 136.519 33.8776 134.152Z" fill="url(#paint1_linear_0_2730)"/>
<path id="reflect-frame-right" opacity="0.75" fill-rule="evenodd" clip-rule="evenodd" d="M127.807 123.442V-43.3572C127.807 -47.8325 126.173 -49.4869 125.198 -50.5493C124.224 -51.6116 124.182 -52.1534 125.582 -51.3513C126.983 -50.5493 129.784 -48.2131 129.784 -43.3572V123.442C129.784 128.298 126.983 130.634 125.582 131.436C124.182 132.238 124.224 131.696 125.198 130.634C126.173 129.571 127.807 127.917 127.807 123.442Z" fill="url(#paint2_linear_0_2730)"/>
<path id="reflect-frame-left" opacity="0.75" fill-rule="evenodd" clip-rule="evenodd" d="M31.9991 123.442V-43.3572C31.9991 -47.8325 33.6328 -49.4869 34.6074 -50.5493C35.582 -51.6116 35.6235 -52.1534 34.2232 -51.3513C32.8228 -50.5493 30.022 -48.2131 30.022 -43.3572V123.442C30.022 128.298 32.8228 130.634 34.2232 131.436C35.6235 132.238 35.582 131.696 34.6074 130.634C33.6328 129.571 31.9991 127.917 31.9991 123.442Z" fill="url(#paint3_linear_0_2730)"/>
</g>
</g>
<g id="Screen">
<path id="Screen Mask" fill-rule="evenodd" clip-rule="evenodd" d="M71.1248 -52.1466L42.302 -52.1466C38.0005 -52.1466 34.8662 -49.1969 34.8662 -45.3445V119.388C34.8662 124.411 39.7092 128.861 45.1854 128.861H114.654C119.929 128.861 124.973 124.376 124.973 119.388V-44.8992C124.973 -49.5166 121.568 -52.1191 117.537 -52.1466L88.2575 -52.1466C88.1465 -52.1283 86.1352 -51.2957 85.2851 -49.1969C84.435 -47.0981 82.7246 -45.425 80.8519 -45.425H78.6768C77.7866 -45.425 75.4431 -46.2946 74.2564 -49.1969C73.0697 -52.0992 71.2358 -52.1283 71.1248 -52.1466Z" fill="#E3ECF6"/>
<mask id="mask0_0_2730" style="mask-type:luminance" maskUnits="userSpaceOnUse" x="34" y="-53" width="91" height="182">
<path id="Screen Mask_2" fill-rule="evenodd" clip-rule="evenodd" d="M71.1248 -52.1466L42.302 -52.1466C38.0005 -52.1466 34.8662 -49.1969 34.8662 -45.3445V119.388C34.8662 124.411 39.7092 128.861 45.1854 128.861H114.654C119.929 128.861 124.973 124.376 124.973 119.388V-44.8992C124.973 -49.5166 121.568 -52.1191 117.537 -52.1466L88.2575 -52.1466C88.1465 -52.1283 86.1352 -51.2957 85.2851 -49.1969C84.435 -47.0981 82.7246 -45.425 80.8519 -45.425H78.6768C77.7866 -45.425 75.4431 -46.2946 74.2564 -49.1969C73.0697 -52.0992 71.2358 -52.1283 71.1248 -52.1466Z" fill="white"/>
</mask>
<g mask="url(#mask0_0_2730)">
<g id="Group 6">
<g id="Group">
<rect id="Rectangle" x="34.8848" y="-52.015" width="90.1068" height="180.863" fill="#F7F7F7"/>
<g id="Group 14">
<g id="Group 13 Copy">
<rect id="Rectangle Copy 3" x="40.1924" y="-4.07141" width="79.6881" height="22.2857" rx="4" fill="white"/>
<path id="Account2Savings" fill-rule="evenodd" clip-rule="evenodd" d="M60.5601 4.28569V3.98344H59.3342V3.94282C59.3342 3.85723 59.3564 3.78411 59.4007 3.72344C59.445 3.66278 59.5034 3.60834 59.5759 3.56013C59.6483 3.51192 59.7277 3.46588 59.8142 3.422C59.9007 3.37813 59.9872 3.33209 60.0737 3.28388C60.1602 3.23567 60.2393 3.18015 60.3112 3.11732C60.3831 3.05448 60.4412 2.97973 60.4855 2.89307C60.5299 2.8064 60.552 2.70294 60.552 2.58269C60.552 2.44728 60.5196 2.32865 60.4547 2.22682C60.3899 2.12498 60.2983 2.04563 60.1799 1.98875C60.0615 1.93188 59.9212 1.90344 59.7591 1.90344C59.5721 1.90344 59.4153 1.93757 59.2888 2.00582C59.1624 2.07407 59.0667 2.16561 59.0018 2.28044C58.937 2.39528 58.9029 2.52257 58.8997 2.66232H59.2402C59.2542 2.51932 59.3061 2.40719 59.3959 2.32594C59.4856 2.24469 59.6023 2.20407 59.7461 2.20407C59.8812 2.20407 59.9883 2.23928 60.0672 2.30969C60.1461 2.38011 60.1856 2.47165 60.1856 2.58432C60.1856 2.6699 60.1631 2.74438 60.1183 2.80775C60.0734 2.87113 60.0142 2.928 59.9407 2.97838C59.8672 3.02875 59.7867 3.07723 59.6991 3.12382C59.6115 3.1704 59.5237 3.21915 59.4356 3.27007C59.3475 3.32098 59.2667 3.37921 59.1932 3.44475C59.1197 3.5103 59.0605 3.58694 59.0156 3.67469C58.9707 3.76244 58.9483 3.8659 58.9483 3.98507V4.28569H60.5601ZM46.3236 4.28569L46.549 3.66982H47.4749L47.6954 4.28569H48.0457L47.2008 1.93594H46.8181L45.9717 4.28569H46.3236ZM47.3857 3.35457H46.6317L47.0111 2.27719L47.3857 3.35457ZM49.3192 4.24669C49.2214 4.29436 49.1108 4.31819 48.9876 4.31819C48.8352 4.31819 48.7 4.28488 48.5822 4.21826C48.4644 4.15163 48.3722 4.05359 48.3057 3.92413C48.2392 3.79467 48.206 3.63732 48.206 3.45207C48.206 3.27765 48.2368 3.12436 48.2984 2.99219C48.36 2.86003 48.4495 2.75711 48.5668 2.68344C48.6841 2.60978 48.8243 2.57294 48.9876 2.57294C49.113 2.57294 49.2246 2.59759 49.3224 2.64688C49.4203 2.69617 49.4995 2.76469 49.56 2.85244C49.6205 2.94019 49.6573 3.04257 49.6703 3.15957H49.3703C49.3605 3.10432 49.3397 3.05286 49.3078 3.00519C49.2759 2.95753 49.2332 2.91934 49.1797 2.89063C49.1262 2.86192 49.0627 2.84757 48.9892 2.84757C48.8552 2.84757 48.746 2.89686 48.6616 2.99544C48.5773 3.09403 48.5352 3.24515 48.5352 3.44882C48.5352 3.63515 48.5744 3.78357 48.6527 3.89407C48.7311 4.00457 48.8454 4.05982 48.9957 4.05982C49.0681 4.05982 49.1311 4.04465 49.1846 4.01432C49.2381 3.98398 49.2805 3.94498 49.3119 3.89732C49.3432 3.84965 49.3632 3.80036 49.3719 3.74944H49.667C49.6551 3.86211 49.6186 3.96123 49.5576 4.04682C49.4965 4.1324 49.417 4.19903 49.3192 4.24669ZM50.6873 4.31819C50.8105 4.31819 50.9211 4.29436 51.0189 4.24669C51.1167 4.19903 51.1962 4.1324 51.2573 4.04682C51.3183 3.96123 51.3548 3.86211 51.3667 3.74944H51.0716C51.0629 3.80036 51.0429 3.84965 51.0116 3.89732C50.9802 3.94498 50.9378 3.98398 50.8843 4.01432C50.8308 4.04465 50.7678 4.05982 50.6954 4.05982C50.5451 4.05982 50.4308 4.00457 50.3524 3.89407C50.274 3.78357 50.2349 3.63515 50.2349 3.44882C50.2349 3.24515 50.277 3.09403 50.3613 2.99544C50.4457 2.89686 50.5548 2.84757 50.6889 2.84757C50.7624 2.84757 50.8259 2.86192 50.8794 2.89063C50.9329 2.91934 50.9756 2.95753 51.0075 3.00519C51.0394 3.05286 51.0602 3.10432 51.07 3.15957H51.37C51.357 3.04257 51.3202 2.94019 51.2597 2.85244C51.1991 2.76469 51.12 2.69617 51.0221 2.64688C50.9243 2.59759 50.8127 2.57294 50.6873 2.57294C50.524 2.57294 50.3838 2.60978 50.2665 2.68344C50.1492 2.75711 50.0597 2.86003 49.9981 2.99219C49.9365 3.12436 49.9057 3.27765 49.9057 3.45207C49.9057 3.63732 49.9389 3.79467 50.0054 3.92413C50.0719 4.05359 50.1641 4.15163 50.2819 4.21826C50.3997 4.28488 50.5348 4.31819 50.6873 4.31819ZM52.8094 4.2085C52.6943 4.28163 52.5529 4.31819 52.3854 4.31819C52.2286 4.31819 52.0916 4.28434 51.9743 4.21663C51.857 4.14892 51.7662 4.05061 51.7019 3.92169C51.6375 3.79278 51.6054 3.63678 51.6054 3.45369C51.6054 3.27711 51.6359 3.12273 51.697 2.99057C51.7581 2.8584 51.847 2.75575 51.9637 2.68263C52.0805 2.6095 52.2216 2.57294 52.387 2.57294C52.5448 2.57294 52.6816 2.60734 52.7972 2.67613C52.9129 2.74492 53.0026 2.84513 53.0664 2.97675C53.1302 3.10838 53.1621 3.26736 53.1621 3.45369C53.1621 3.62378 53.1321 3.77382 53.0721 3.90382C53.0121 4.03382 52.9245 4.13538 52.8094 4.2085ZM52.387 4.05007C52.2821 4.05007 52.1973 4.02244 52.1324 3.96719C52.0675 3.91194 52.0205 3.83828 51.9913 3.74619C51.9621 3.65411 51.9475 3.55336 51.9475 3.44394C51.9475 3.32044 51.964 3.21346 51.997 3.123C52.03 3.03255 52.0789 2.96267 52.1437 2.91338C52.2086 2.86409 52.2897 2.83944 52.387 2.83944C52.4908 2.83944 52.5745 2.86653 52.6383 2.92069C52.7021 2.97486 52.7483 3.04771 52.777 3.13925C52.8056 3.2308 52.8199 3.33236 52.8199 3.44394C52.8199 3.56419 52.8037 3.67009 52.7713 3.76163C52.7389 3.85317 52.6905 3.92413 52.6262 3.9745C52.5618 4.02488 52.4821 4.05007 52.387 4.05007ZM54.2903 4.28488C54.2216 4.30817 54.1489 4.31928 54.0722 4.31819C53.9879 4.31711 53.9073 4.30465 53.8306 4.28082C53.7538 4.25698 53.6854 4.22123 53.6254 4.17357C53.5654 4.1259 53.5179 4.06686 53.4827 3.99644C53.4476 3.92603 53.43 3.84423 53.43 3.75107V2.60544H53.7787V3.71369C53.7787 3.81444 53.81 3.89623 53.8727 3.95907C53.9354 4.0219 54.03 4.05332 54.1565 4.05332C54.2711 4.05332 54.363 4.02325 54.4322 3.96313C54.5014 3.903 54.5359 3.81498 54.5359 3.69907V2.60544H54.8813V4.28569H54.6122L54.5732 3.96069C54.5538 4.04844 54.5189 4.11859 54.4687 4.17113C54.4184 4.22367 54.3589 4.26159 54.2903 4.28488ZM55.6407 4.28569V3.17582C55.6407 3.10648 55.6597 3.0488 55.6975 3.00275C55.7353 2.95671 55.7851 2.92232 55.8467 2.89957C55.9083 2.87682 55.9732 2.86544 56.0413 2.86544C56.1429 2.86544 56.2258 2.89469 56.2902 2.95319C56.3545 3.01169 56.3867 3.10107 56.3867 3.22132V4.28569H56.7337V3.18394C56.7337 3.04419 56.7066 2.93017 56.6526 2.84188C56.5985 2.75359 56.5269 2.68859 56.4377 2.64688C56.3485 2.60517 56.2515 2.58432 56.1467 2.58432C56.058 2.58432 55.9799 2.59678 55.9123 2.62169C55.8448 2.64661 55.788 2.67911 55.7421 2.71919C55.6961 2.75928 55.6597 2.80207 55.6326 2.84757V2.60544H55.2937V4.28569H55.6407ZM57.8622 4.28732C57.8195 4.29382 57.7646 4.29707 57.6976 4.29707C57.5733 4.29707 57.4768 4.28028 57.4081 4.24669C57.3395 4.21311 57.2919 4.16463 57.2654 4.10125C57.239 4.03788 57.2257 3.96123 57.2257 3.87132V2.85569H56.9533V2.60544H57.2354L57.3214 2.11144H57.5727V2.60382H57.9489V2.85569H57.5727L57.5743 3.85832C57.5743 3.91357 57.58 3.95392 57.5914 3.97938C57.6027 4.00484 57.6222 4.02109 57.6497 4.02813C57.6773 4.03517 57.7149 4.03869 57.7624 4.03869H57.9587V4.26457C57.937 4.27323 57.9049 4.28082 57.8622 4.28732ZM62.9473 4.23207C62.8132 4.28948 62.6527 4.31819 62.4657 4.31819C62.3543 4.31819 62.2457 4.30411 62.1397 4.27594C62.0338 4.24778 61.9376 4.2058 61.8511 4.15C61.7646 4.09421 61.693 4.02461 61.6363 3.94119C61.5795 3.85778 61.5441 3.76028 61.53 3.64869H61.8916C61.91 3.73319 61.9465 3.80415 62.0011 3.86157C62.0557 3.91898 62.123 3.96232 62.203 3.99157C62.283 4.02082 62.37 4.03544 62.4641 4.03544C62.5678 4.03544 62.6611 4.02109 62.7438 3.99238C62.8265 3.96367 62.8921 3.9225 62.9408 3.86888C62.9894 3.81525 63.0138 3.75053 63.0138 3.67469C63.0138 3.60644 62.9973 3.54848 62.9643 3.50082C62.9313 3.45315 62.8849 3.41334 62.8249 3.38138C62.7649 3.34942 62.6927 3.32423 62.6084 3.30582L62.1641 3.20507C61.99 3.16823 61.853 3.09971 61.753 2.9995C61.653 2.8993 61.6025 2.76632 61.6014 2.60057C61.6003 2.4619 61.6368 2.34057 61.7108 2.23657C61.7849 2.13257 61.8862 2.05159 62.0149 1.99363C62.1435 1.93567 62.29 1.90669 62.4543 1.90669C62.6457 1.90669 62.8065 1.93865 62.9367 2.00257C63.067 2.06648 63.1657 2.15071 63.2327 2.25525C63.2997 2.3598 63.3338 2.47328 63.3348 2.59569H62.9797C62.9711 2.49603 62.9419 2.41694 62.8921 2.35844C62.8424 2.29994 62.78 2.25796 62.7049 2.2325C62.6297 2.20705 62.5473 2.19432 62.4576 2.19432C62.3927 2.19432 62.3305 2.20244 62.2711 2.21869C62.2116 2.23494 62.1592 2.25878 62.1138 2.29019C62.0684 2.32161 62.0325 2.36034 62.006 2.40638C61.9795 2.45242 61.9662 2.50523 61.9662 2.56482C61.9662 2.64498 61.9933 2.70998 62.0473 2.75982C62.1014 2.80965 62.2008 2.85244 62.3457 2.88819L62.7803 2.98732C62.9046 3.01332 63.0051 3.0515 63.0819 3.10188C63.1586 3.15225 63.2175 3.2094 63.2586 3.27332C63.2997 3.33723 63.3278 3.40359 63.3429 3.47238C63.3581 3.54117 63.3656 3.60698 63.3656 3.66982C63.3656 3.79115 63.3294 3.90084 63.257 3.99888C63.1846 4.09692 63.0813 4.17465 62.9473 4.23207ZM64.1916 4.31819C64.3116 4.31819 64.4195 4.29355 64.5151 4.24425C64.6108 4.19496 64.69 4.10586 64.7527 3.97694L64.7803 4.28569H65.0738V3.11082C65.0738 2.99598 65.0497 2.89848 65.0016 2.81832C64.9535 2.73815 64.8802 2.67721 64.7819 2.6355C64.6835 2.5938 64.5581 2.57294 64.4057 2.57294C64.2684 2.57294 64.1489 2.59244 64.0473 2.63144C63.9457 2.67044 63.866 2.72813 63.8081 2.8045C63.7503 2.88088 63.7181 2.97486 63.7116 3.08644H64.0133C64.0349 2.99219 64.0805 2.92448 64.1503 2.88332C64.22 2.84215 64.2997 2.82157 64.3895 2.82157C64.5084 2.82048 64.5965 2.84757 64.6538 2.90282C64.7111 2.95807 64.7397 3.0339 64.7397 3.13032V3.25219L64.464 3.26032C64.1754 3.26573 63.9651 3.31448 63.8333 3.40657C63.7014 3.49865 63.6354 3.63786 63.6354 3.82419C63.6354 3.92819 63.6592 4.01703 63.7068 4.09069C63.7543 4.16436 63.82 4.22069 63.9038 4.25969C63.9876 4.29869 64.0835 4.31819 64.1916 4.31819ZM64.0635 4.0005C64.1262 4.05088 64.2051 4.07607 64.3003 4.07607C64.3532 4.07607 64.4057 4.06659 64.4576 4.04763C64.5095 4.02867 64.5565 4.00267 64.5986 3.96963C64.6408 3.93659 64.6746 3.89948 64.7 3.85832C64.7254 3.81715 64.7386 3.7749 64.7397 3.73157V3.45369L64.5127 3.45857C64.397 3.45965 64.2989 3.47157 64.2184 3.49432C64.1378 3.51707 64.0762 3.55228 64.0335 3.59994C63.9908 3.64761 63.9695 3.71098 63.9695 3.79007C63.9695 3.87998 64.0008 3.95013 64.0635 4.0005ZM66.1909 4.28569L66.8006 2.60544H66.4795L66.0547 3.84532H66.032L65.6071 2.60544H65.2861L65.8974 4.28569H66.1909ZM67.4236 1.93757V2.28044H67.075V1.93757H67.4236ZM67.4171 4.28569V2.60544H67.0831V4.28569H67.4171ZM68.2312 3.17582V4.28569H67.8842V2.60544H68.2231V2.84757C68.2502 2.80207 68.2866 2.75928 68.3326 2.71919C68.3785 2.67911 68.4353 2.64661 68.5028 2.62169C68.5704 2.59678 68.6485 2.58432 68.7372 2.58432C68.842 2.58432 68.939 2.60517 69.0282 2.64688C69.1174 2.68859 69.189 2.75359 69.2431 2.84188C69.2971 2.93017 69.3242 3.04419 69.3242 3.18394V4.28569H68.9772V3.22132C68.9772 3.10107 68.945 3.01169 68.8807 2.95319C68.8163 2.89469 68.7334 2.86544 68.6318 2.86544C68.5637 2.86544 68.4988 2.87682 68.4372 2.89957C68.3756 2.92232 68.3258 2.95671 68.288 3.00275C68.2502 3.0488 68.2312 3.10648 68.2312 3.17582ZM70.4454 4.84144C70.7297 4.84144 70.9416 4.79242 71.081 4.69438C71.2205 4.59634 71.2902 4.4704 71.2902 4.31657C71.2902 4.18223 71.2418 4.07444 71.1451 3.99319C71.0483 3.91194 70.9081 3.8659 70.7243 3.85507C70.6486 3.84965 70.5797 3.84532 70.5175 3.84207C70.4554 3.83882 70.4043 3.83557 70.3643 3.83232C70.2529 3.82473 70.173 3.81553 70.1243 3.80469C70.0757 3.79386 70.0513 3.77328 70.0513 3.74294C70.0513 3.71911 70.0703 3.69717 70.1081 3.67713C70.1459 3.65709 70.2151 3.64544 70.3156 3.64219C70.3319 3.64436 70.3519 3.64571 70.3756 3.64625C70.3994 3.6468 70.4189 3.64707 70.434 3.64707C70.5929 3.64707 70.7254 3.62269 70.8313 3.57394C70.9372 3.52519 71.0167 3.45992 71.0697 3.37813C71.1226 3.29634 71.1491 3.20669 71.1491 3.10919C71.1491 3.07669 71.1445 3.04094 71.1353 3.00194C71.1262 2.96294 71.114 2.92719 71.0989 2.89469L71.3907 2.84107L71.3924 2.53882L71.291 2.58107C71.2494 2.5984 71.2056 2.61628 71.1597 2.63469C71.1137 2.65311 71.0718 2.67017 71.034 2.68588C70.9962 2.70159 70.967 2.71323 70.9464 2.72082C70.8837 2.6764 70.8151 2.64173 70.7405 2.61682C70.6659 2.5919 70.5735 2.57944 70.4632 2.57944C70.3119 2.57944 70.1802 2.60057 70.0684 2.64282C69.9565 2.68507 69.8697 2.746 69.8081 2.82563C69.7465 2.90525 69.7157 2.99978 69.7157 3.10919C69.7157 3.20453 69.7435 3.29444 69.7992 3.37894C69.8549 3.46344 69.9335 3.53061 70.0351 3.58044C69.9324 3.60211 69.8554 3.63596 69.804 3.682C69.7527 3.72805 69.727 3.77815 69.727 3.83232C69.727 3.8789 69.7384 3.91655 69.7611 3.94525C69.7838 3.97396 69.8095 3.99671 69.8381 4.0135L69.9086 4.05494C69.8989 4.06144 69.8773 4.07255 69.8438 4.08825C69.8103 4.10396 69.7738 4.12536 69.7343 4.15244C69.6949 4.17953 69.6608 4.21392 69.6322 4.25563C69.6035 4.29734 69.5892 4.34798 69.5892 4.40757C69.5892 4.54407 69.6638 4.6505 69.813 4.72688C69.9621 4.80325 70.173 4.84144 70.4454 4.84144ZM70.164 3.34969C70.2305 3.40603 70.3238 3.43419 70.4438 3.43419C70.5562 3.43419 70.6467 3.40684 70.7154 3.35213C70.784 3.29742 70.8183 3.21861 70.8183 3.11569C70.8183 3.00953 70.784 2.92746 70.7154 2.8695C70.6467 2.81155 70.5562 2.78257 70.4438 2.78257C70.3302 2.78257 70.2386 2.81182 70.1689 2.87032C70.0992 2.92882 70.0643 3.01061 70.0643 3.11569C70.0643 3.21536 70.0975 3.29336 70.164 3.34969ZM70.5054 4.62857C70.3097 4.62857 70.1651 4.60609 70.0716 4.56113C69.9781 4.51617 69.9313 4.45144 69.9313 4.36694C69.9313 4.32036 69.9457 4.27784 69.9743 4.23938C70.003 4.20092 70.0392 4.17086 70.083 4.14919C70.1267 4.12753 70.1708 4.11778 70.2151 4.11994L70.6627 4.14919C70.7589 4.15569 70.8313 4.17898 70.8799 4.21907C70.9286 4.25915 70.9529 4.31061 70.9529 4.37344C70.9529 4.45794 70.9154 4.52159 70.8402 4.56438C70.7651 4.60717 70.6535 4.62857 70.5054 4.62857ZM72.6033 4.25725C72.5043 4.29788 72.3868 4.31819 72.2506 4.31819C72.1338 4.31819 72.0244 4.29978 71.9222 4.26294C71.8201 4.22611 71.7346 4.16815 71.666 4.08907C71.5974 4.00998 71.5544 3.90869 71.5371 3.78519H71.8468C71.8609 3.84911 71.8876 3.90192 71.9271 3.94363C71.9665 3.98534 72.0141 4.01621 72.0698 4.03625C72.1254 4.0563 72.1852 4.06632 72.249 4.06632C72.3549 4.06632 72.4406 4.04709 72.506 4.00863C72.5714 3.97017 72.6041 3.91086 72.6041 3.83069C72.6041 3.77328 72.5865 3.72723 72.5514 3.69257C72.5162 3.6579 72.4608 3.63244 72.3852 3.61619L72.0511 3.53657C71.9128 3.50407 71.8019 3.45234 71.7187 3.38138C71.6355 3.31042 71.5933 3.21103 71.5922 3.08319C71.5922 2.98461 71.6168 2.89686 71.666 2.81994C71.7152 2.74303 71.7884 2.68263 71.8857 2.63875C71.983 2.59488 72.1041 2.57294 72.249 2.57294C72.4381 2.57294 72.59 2.61519 72.7046 2.69969C72.8192 2.78419 72.8787 2.90661 72.883 3.06694H72.583C72.5722 2.99003 72.5373 2.92963 72.4784 2.88575C72.4195 2.84188 72.3419 2.81994 72.2457 2.81994C72.1463 2.81994 72.0646 2.83971 72.0009 2.87925C71.9371 2.9188 71.9052 2.97919 71.9052 3.06044C71.9052 3.11569 71.9284 3.1593 71.9749 3.19125C72.0214 3.22321 72.0911 3.24948 72.1841 3.27007L72.5019 3.34969C72.5841 3.37136 72.6516 3.3998 72.7046 3.435C72.7576 3.47021 72.7992 3.50894 72.8295 3.55119C72.8597 3.59344 72.8811 3.63732 72.8935 3.68282C72.906 3.72832 72.9122 3.77111 72.9122 3.81119C72.9122 3.91736 72.8854 4.00809 72.8319 4.08338C72.7784 4.15867 72.7022 4.21663 72.6033 4.25725Z" fill="#9597A5"/>
<path id="$74,199.61" fill-rule="evenodd" clip-rule="evenodd" d="M48.193 11.7608L48.1935 12.33H47.6122L47.612 11.7594L47.5093 11.7476C47.2104 11.7053 46.9531 11.6138 46.7374 11.4729C46.4292 11.2717 46.2481 10.9699 46.1938 10.5676L46.8684 10.5344C46.9266 10.7678 47.0481 10.9433 47.2328 11.061C47.4175 11.1787 47.6444 11.2375 47.9134 11.2375C48.074 11.2375 48.2236 11.2099 48.3621 11.1545C48.5006 11.0992 48.6121 11.0223 48.6964 10.9237C48.7807 10.8251 48.8229 10.7104 48.8229 10.5796C48.8229 10.3945 48.7671 10.2497 48.6557 10.1451C48.5443 10.0405 48.3701 9.95796 48.1332 9.8976L47.3924 9.7105C47.0672 9.63203 46.8087 9.50176 46.617 9.31969C46.4252 9.13761 46.3284 8.89266 46.3264 8.58484C46.3243 8.32731 46.3921 8.10198 46.5296 7.90884C46.6672 7.71569 46.8574 7.5653 47.1003 7.45767L47.2065 7.41483C47.3148 7.37529 47.4293 7.34564 47.5502 7.32587L47.6421 7.31385L47.6424 6.70471H48.2266L48.2264 7.31664L48.259 7.3204C48.431 7.34728 48.5863 7.39656 48.725 7.46823C48.9468 7.58291 49.1185 7.73531 49.2399 7.92544C49.3614 8.11556 49.4252 8.32329 49.4312 8.54862L48.7777 8.57578C48.7375 8.33435 48.6507 8.14976 48.5172 8.02201C48.3837 7.89425 48.1894 7.83037 47.9345 7.83037C47.812 7.83037 47.6956 7.84546 47.5851 7.87564C47.4747 7.90582 47.3774 7.95008 47.293 8.00843C47.2087 8.06677 47.142 8.1387 47.0928 8.2242C47.0436 8.30971 47.019 8.40779 47.019 8.51844C47.019 8.66733 47.0707 8.78502 47.1741 8.87153C47.2775 8.95805 47.4657 9.04154 47.7387 9.12202L48.4585 9.31818C48.8339 9.41877 49.1029 9.57872 49.2655 9.79802C49.4282 10.0173 49.5095 10.2748 49.5095 10.5706C49.5095 10.808 49.4432 11.0172 49.3107 11.1983C49.1782 11.3794 48.992 11.5207 48.7521 11.6223L48.6469 11.6627C48.5394 11.7001 48.4247 11.7281 48.303 11.7467L48.193 11.7608ZM51.6465 11.058C51.5782 11.3085 51.5361 11.5272 51.52 11.7144H50.8183C50.8464 11.5212 50.8996 11.2808 50.9779 10.9931C51.0562 10.7054 51.1621 10.39 51.2957 10.047C51.4292 9.70396 51.5913 9.34835 51.782 8.98018C51.9727 8.612 52.1946 8.25086 52.4475 7.89677H50.0323V7.35053H53.1432V7.89677C52.9926 8.09997 52.843 8.33134 52.6945 8.59087C52.5459 8.85041 52.4049 9.12252 52.2714 9.4072C52.1379 9.69189 52.0174 9.97557 51.91 10.2582C51.8026 10.5409 51.7147 10.8075 51.6465 11.058ZM56.1274 11.7144V10.64H56.8351V10.0817H56.1274V7.35053H55.4799L53.4622 10.0726V10.64H55.501V11.7144H56.1274ZM54.0705 10.0817H55.4919V8.17139L54.0705 10.0817ZM57.4693 12.496L58.0054 11.6208V10.9931H57.2585V11.7113L57.5326 11.7294L57.1923 12.496H57.4693ZM60.101 7.35053V11.7144H59.4415V8.29814H58.6163V7.89677C58.8733 7.89677 59.0756 7.87614 59.2232 7.8349C59.3707 7.79366 59.4771 7.73229 59.5424 7.65081C59.6076 7.56933 59.6443 7.46924 59.6523 7.35053H60.101ZM62.5132 11.7807C62.8846 11.7807 63.2013 11.6912 63.4633 11.5122C63.7253 11.3331 63.9246 11.071 64.0611 10.726C64.1976 10.381 64.2659 9.95897 64.2659 9.46002C64.2659 9.01136 64.1976 8.62508 64.0611 8.30116C63.9246 7.97724 63.7298 7.72777 63.4769 7.55273C63.2239 7.37769 62.9247 7.29018 62.5794 7.29018C62.2642 7.29018 61.9917 7.35355 61.7618 7.4803C61.5319 7.60705 61.3543 7.78209 61.2288 8.00541C61.1033 8.22873 61.0406 8.48525 61.0406 8.77496C61.0406 9.06468 61.1028 9.31365 61.2273 9.52188C61.3518 9.73011 61.5244 9.89056 61.7453 10.0032C61.9661 10.1159 62.2211 10.1722 62.5102 10.1722C62.6888 10.1722 62.8515 10.1421 62.998 10.0817C63.1446 10.0213 63.2711 9.93835 63.3775 9.83272C63.4839 9.7271 63.5632 9.60387 63.6154 9.46303C63.6375 9.8795 63.6048 10.2195 63.5175 10.4831C63.4302 10.7466 63.2982 10.9408 63.1215 11.0655C62.9448 11.1903 62.735 11.2526 62.4921 11.2526C62.2753 11.2526 62.0921 11.1933 61.9425 11.0746C61.7929 10.9559 61.6951 10.801 61.6489 10.6098H61.0285C61.0566 10.8512 61.1415 11.059 61.283 11.233C61.4245 11.407 61.6027 11.5418 61.8175 11.6374C62.0323 11.733 62.2642 11.7807 62.5132 11.7807ZM61.9591 9.39664C62.1076 9.55558 62.3194 9.63505 62.5945 9.63505C62.7451 9.63505 62.8886 9.60085 63.0251 9.53244C63.1616 9.46404 63.2736 9.373 63.3609 9.25933C63.4482 9.14566 63.4919 9.02343 63.4919 8.89266C63.4939 8.67537 63.4573 8.48525 63.382 8.32228C63.3067 8.15932 63.2013 8.03207 63.0658 7.94052C62.9303 7.84898 62.7712 7.80321 62.5885 7.80321C62.4238 7.80321 62.2773 7.84295 62.1488 7.92242C62.0203 8.00189 61.9194 8.11254 61.8461 8.25438C61.7729 8.39622 61.7362 8.55969 61.7362 8.74478C61.7362 9.02041 61.8105 9.2377 61.9591 9.39664ZM66.203 11.7807C66.5744 11.7807 66.8911 11.6912 67.1531 11.5122C67.4151 11.3331 67.6144 11.071 67.7509 10.726C67.8874 10.381 67.9557 9.95897 67.9557 9.46002C67.9557 9.01136 67.8874 8.62508 67.7509 8.30116C67.6144 7.97724 67.4196 7.72777 67.1667 7.55273C66.9137 7.37769 66.6145 7.29018 66.2692 7.29018C65.954 7.29018 65.6815 7.35355 65.4516 7.4803C65.2217 7.60705 65.0441 7.78209 64.9186 8.00541C64.7931 8.22873 64.7304 8.48525 64.7304 8.77496C64.7304 9.06468 64.7926 9.31365 64.9171 9.52188C65.0416 9.73011 65.2142 9.89056 65.4351 10.0032C65.6559 10.1159 65.9109 10.1722 66.2 10.1722C66.3787 10.1722 66.5413 10.1421 66.6878 10.0817C66.8344 10.0213 66.9609 9.93835 67.0673 9.83272C67.1737 9.7271 67.253 9.60387 67.3052 9.46303C67.3273 9.8795 67.2946 10.2195 67.2073 10.4831C67.12 10.7466 66.988 10.9408 66.8113 11.0655C66.6346 11.1903 66.4248 11.2526 66.1819 11.2526C65.9651 11.2526 65.7819 11.1933 65.6323 11.0746C65.4827 10.9559 65.3849 10.801 65.3387 10.6098H64.7183C64.7464 10.8512 64.8313 11.059 64.9728 11.233C65.1143 11.407 65.2925 11.5418 65.5073 11.6374C65.7222 11.733 65.954 11.7807 66.203 11.7807ZM65.6489 9.39664C65.7974 9.55558 66.0092 9.63505 66.2843 9.63505C66.4349 9.63505 66.5784 9.60085 66.7149 9.53244C66.8515 9.46404 66.9634 9.373 67.0507 9.25933C67.138 9.14566 67.1817 9.02343 67.1817 8.89266C67.1837 8.67537 67.1471 8.48525 67.0718 8.32228C66.9965 8.15932 66.8911 8.03207 66.7556 7.94052C66.6201 7.84898 66.461 7.80321 66.2783 7.80321C66.1136 7.80321 65.9671 7.84295 65.8386 7.92242C65.7101 8.00189 65.6092 8.11254 65.5359 8.25438C65.4627 8.39622 65.426 8.55969 65.426 8.74478C65.426 9.02041 65.5003 9.2377 65.6489 9.39664ZM69.2122 11.7144V10.9357H68.4684V11.7144H69.2122ZM72.2797 11.5891C72.0469 11.7169 71.7728 11.7807 71.4576 11.7807C71.1123 11.7807 70.8127 11.6927 70.5587 11.5167C70.3047 11.3406 70.109 11.0902 69.9715 10.7652C69.8339 10.4403 69.7652 10.0535 69.7652 9.60487C69.7652 9.13409 69.8324 8.72517 69.9669 8.37811C70.1015 8.03106 70.2982 7.76297 70.5572 7.57385C70.8162 7.38474 71.1314 7.29018 71.5028 7.29018C71.7517 7.29018 71.9821 7.33645 72.1939 7.429C72.4057 7.52155 72.5804 7.65483 72.7179 7.82886C72.8554 8.00289 72.9373 8.21364 72.9634 8.4611H72.3641C72.3079 8.25991 72.207 8.10248 72.0614 7.98881C71.9159 7.87514 71.7337 7.8183 71.5148 7.8183C71.2719 7.8183 71.0686 7.88721 70.905 8.02502C70.7414 8.16284 70.6229 8.36353 70.5497 8.62709C70.4764 8.89065 70.4528 9.20853 70.4789 9.58073C70.5351 9.44794 70.6179 9.33176 70.7273 9.23217C70.8368 9.13258 70.9627 9.05562 71.1053 9.0013C71.2478 8.94698 71.4004 8.91982 71.563 8.91982C71.8521 8.91982 72.1051 8.97515 72.3219 9.0858C72.5387 9.19646 72.7079 9.35439 72.8293 9.5596C72.9508 9.76482 73.0115 10.0083 73.0115 10.2899C73.0115 10.5796 72.9478 10.8367 72.8203 11.061C72.6928 11.2853 72.5126 11.4614 72.2797 11.5891ZM71.4456 11.2617C71.2649 11.2617 71.1068 11.2159 70.9713 11.1244C70.8357 11.0328 70.7303 10.9056 70.6551 10.7426C70.5798 10.5796 70.5441 10.3905 70.5482 10.1752C70.5482 10.0425 70.5913 9.91974 70.6776 9.80707C70.764 9.6944 70.8754 9.60336 71.0119 9.53395C71.1484 9.46454 71.292 9.42984 71.4426 9.42984C71.6253 9.42984 71.7824 9.46505 71.9139 9.53546C72.0454 9.60588 72.1462 9.70748 72.2165 9.84027C72.2868 9.97305 72.3219 10.133 72.3219 10.3201C72.3219 10.5052 72.2838 10.6687 72.2075 10.8105C72.1312 10.9523 72.0273 11.063 71.8958 11.1425C71.7643 11.2219 71.6142 11.2617 71.4456 11.2617ZM74.9586 7.35053V11.7144H74.2991V8.29814H73.474V7.89677C73.731 7.89677 73.9332 7.87614 74.0808 7.8349C74.2284 7.79366 74.3348 7.73229 74.4 7.65081C74.4653 7.56933 74.5019 7.46924 74.5099 7.35053H74.9586Z" fill="#2D314D"/>
</g>
<g id="Group 13 Copy 3">
<rect id="Rectangle Copy 3_2" x="40.1924" y="21.9286" width="79.6881" height="22.2857" rx="4" fill="white"/>
<path id="Account2Checking" fill-rule="evenodd" clip-rule="evenodd" d="M64.1407 29.1775V30.2857H63.7937V27.871H64.1359V28.8508C64.1629 28.8064 64.1994 28.7642 64.2453 28.7241C64.2913 28.684 64.3475 28.6512 64.414 28.6258C64.4805 28.6003 64.558 28.5876 64.6467 28.5876C64.7559 28.5876 64.8545 28.6079 64.9426 28.6485C65.0307 28.6892 65.101 28.7477 65.1534 28.824C65.2058 28.9004 65.2321 28.9911 65.2321 29.0962V30.2857H64.885V29.1596C64.885 29.0653 64.8526 28.9928 64.7878 28.9418C64.7229 28.8909 64.6396 28.8655 64.538 28.8655C64.4699 28.8655 64.4053 28.8771 64.3443 28.9004C64.2832 28.9237 64.234 28.9584 64.1967 29.0044C64.1594 29.0505 64.1407 29.1081 64.1407 29.1775ZM60.5601 29.9835V30.2857H58.9483V29.9851C58.9483 29.8659 58.9707 29.7625 59.0156 29.6747C59.0605 29.587 59.1197 29.5103 59.1932 29.4448C59.2667 29.3792 59.3475 29.321 59.4356 29.2701C59.5237 29.2192 59.6115 29.1704 59.6991 29.1238C59.7867 29.0773 59.8672 29.0288 59.9407 28.9784C60.0142 28.928 60.0734 28.8712 60.1183 28.8078C60.1631 28.7444 60.1856 28.6699 60.1856 28.5843C60.1856 28.4717 60.1461 28.3801 60.0672 28.3097C59.9883 28.2393 59.8812 28.2041 59.7461 28.2041C59.6023 28.2041 59.4856 28.2447 59.3959 28.326C59.3061 28.4072 59.2542 28.5193 59.2402 28.6623H58.8997C58.9029 28.5226 58.937 28.3953 59.0018 28.2805C59.0667 28.1656 59.1624 28.0741 59.2888 28.0058C59.4153 27.9376 59.5721 27.9035 59.7591 27.9035C59.9212 27.9035 60.0615 27.9319 60.1799 27.9888C60.2983 28.0457 60.3899 28.125 60.4547 28.2268C60.5196 28.3287 60.552 28.4473 60.552 28.5827C60.552 28.703 60.5299 28.8064 60.4855 28.8931C60.4412 28.9798 60.3831 29.0545 60.3112 29.1173C60.2393 29.1802 60.1602 29.2357 60.0737 29.2839C59.9872 29.3321 59.9007 29.3782 59.8142 29.422C59.7277 29.4659 59.6483 29.512 59.5759 29.5602C59.5034 29.6084 59.445 29.6628 59.4007 29.7235C59.3564 29.7841 59.3342 29.8573 59.3342 29.9428V29.9835H60.5601ZM46.549 29.6698L46.3236 30.2857H45.9717L46.8181 27.936H47.2008L48.0457 30.2857H47.6954L47.4749 29.6698H46.549ZM46.6317 29.3546H47.3857L47.0111 28.2772L46.6317 29.3546ZM48.9876 30.3182C49.1108 30.3182 49.2214 30.2944 49.3192 30.2467C49.417 30.1991 49.4965 30.1324 49.5576 30.0468C49.6186 29.9613 49.6551 29.8621 49.667 29.7495H49.3719C49.3632 29.8004 49.3432 29.8497 49.3119 29.8973C49.2805 29.945 49.2381 29.984 49.1846 30.0143C49.1311 30.0447 49.0681 30.0598 48.9957 30.0598C48.8454 30.0598 48.7311 30.0046 48.6527 29.8941C48.5744 29.7836 48.5352 29.6352 48.5352 29.4488C48.5352 29.2452 48.5773 29.0941 48.6616 28.9955C48.746 28.8969 48.8552 28.8476 48.9892 28.8476C49.0627 28.8476 49.1262 28.862 49.1797 28.8907C49.2332 28.9194 49.2759 28.9576 49.3078 29.0052C49.3397 29.0529 49.3605 29.1043 49.3703 29.1596H49.6703C49.6573 29.0426 49.6205 28.9402 49.56 28.8525C49.4995 28.7647 49.4203 28.6962 49.3224 28.6469C49.2246 28.5976 49.113 28.573 48.9876 28.573C48.8243 28.573 48.6841 28.6098 48.5668 28.6835C48.4495 28.7571 48.36 28.8601 48.2984 28.9922C48.2368 29.1244 48.206 29.2777 48.206 29.4521C48.206 29.6373 48.2392 29.7947 48.3057 29.9242C48.3722 30.0536 48.4644 30.1517 48.5822 30.2183C48.7 30.2849 48.8352 30.3182 48.9876 30.3182ZM51.0189 30.2467C50.9211 30.2944 50.8105 30.3182 50.6873 30.3182C50.5348 30.3182 50.3997 30.2849 50.2819 30.2183C50.1641 30.1517 50.0719 30.0536 50.0054 29.9242C49.9389 29.7947 49.9057 29.6373 49.9057 29.4521C49.9057 29.2777 49.9365 29.1244 49.9981 28.9922C50.0597 28.8601 50.1492 28.7571 50.2665 28.6835C50.3838 28.6098 50.524 28.573 50.6873 28.573C50.8127 28.573 50.9243 28.5976 51.0221 28.6469C51.12 28.6962 51.1991 28.7647 51.2597 28.8525C51.3202 28.9402 51.357 29.0426 51.37 29.1596H51.07C51.0602 29.1043 51.0394 29.0529 51.0075 29.0052C50.9756 28.9576 50.9329 28.9194 50.8794 28.8907C50.8259 28.862 50.7624 28.8476 50.6889 28.8476C50.5548 28.8476 50.4457 28.8969 50.3613 28.9955C50.277 29.0941 50.2349 29.2452 50.2349 29.4488C50.2349 29.6352 50.274 29.7836 50.3524 29.8941C50.4308 30.0046 50.5451 30.0598 50.6954 30.0598C50.7678 30.0598 50.8308 30.0447 50.8843 30.0143C50.9378 29.984 50.9802 29.945 51.0116 29.8973C51.0429 29.8497 51.0629 29.8004 51.0716 29.7495H51.3667C51.3548 29.8621 51.3183 29.9613 51.2573 30.0468C51.1962 30.1324 51.1167 30.1991 51.0189 30.2467ZM52.3854 30.3182C52.5529 30.3182 52.6943 30.2817 52.8094 30.2085C52.9245 30.1354 53.0121 30.0338 53.0721 29.9038C53.1321 29.7738 53.1621 29.6238 53.1621 29.4537C53.1621 29.2674 53.1302 29.1084 53.0664 28.9768C53.0026 28.8452 52.9129 28.745 52.7972 28.6762C52.6816 28.6074 52.5448 28.573 52.387 28.573C52.2216 28.573 52.0805 28.6095 51.9637 28.6827C51.847 28.7558 51.7581 28.8584 51.697 28.9906C51.6359 29.1228 51.6054 29.2771 51.6054 29.4537C51.6054 29.6368 51.6375 29.7928 51.7019 29.9217C51.7662 30.0506 51.857 30.149 51.9743 30.2167C52.0916 30.2844 52.2286 30.3182 52.3854 30.3182ZM52.1324 29.9672C52.1973 30.0225 52.2821 30.0501 52.387 30.0501C52.4821 30.0501 52.5618 30.0249 52.6262 29.9745C52.6905 29.9242 52.7389 29.8532 52.7713 29.7617C52.8037 29.6701 52.8199 29.5642 52.8199 29.444C52.8199 29.3324 52.8056 29.2308 52.777 29.1393C52.7483 29.0477 52.7021 28.9749 52.6383 28.9207C52.5745 28.8666 52.4908 28.8395 52.387 28.8395C52.2897 28.8395 52.2086 28.8641 52.1437 28.9134C52.0789 28.9627 52.03 29.0326 51.997 29.123C51.964 29.2135 51.9475 29.3205 51.9475 29.444C51.9475 29.5534 51.9621 29.6541 51.9913 29.7462C52.0205 29.8383 52.0675 29.912 52.1324 29.9672ZM54.0722 30.3182C54.1489 30.3193 54.2216 30.3082 54.2903 30.2849C54.3589 30.2616 54.4184 30.2237 54.4687 30.1712C54.5189 30.1186 54.5538 30.0485 54.5732 29.9607L54.6122 30.2857H54.8813V28.6055H54.5359V29.6991C54.5359 29.815 54.5014 29.903 54.4322 29.9632C54.363 30.0233 54.2711 30.0533 54.1565 30.0533C54.03 30.0533 53.9354 30.0219 53.8727 29.9591C53.81 29.8963 53.7787 29.8145 53.7787 29.7137V28.6055H53.43V29.7511C53.43 29.8443 53.4476 29.9261 53.4827 29.9965C53.5179 30.0669 53.5654 30.1259 53.6254 30.1736C53.6854 30.2213 53.7538 30.257 53.8306 30.2808C53.9073 30.3047 53.9879 30.3171 54.0722 30.3182ZM55.6407 29.1758V30.2857H55.2937V28.6055H55.6326V28.8476C55.6597 28.8021 55.6961 28.7593 55.7421 28.7192C55.788 28.6791 55.8448 28.6466 55.9123 28.6217C55.9799 28.5968 56.058 28.5843 56.1467 28.5843C56.2515 28.5843 56.3485 28.6052 56.4377 28.6469C56.5269 28.6886 56.5985 28.7536 56.6526 28.8419C56.7066 28.9302 56.7337 29.0442 56.7337 29.184V30.2857H56.3867V29.2213C56.3867 29.1011 56.3545 29.0117 56.2902 28.9532C56.2258 28.8947 56.1429 28.8655 56.0413 28.8655C55.9732 28.8655 55.9083 28.8768 55.8467 28.8996C55.7851 28.9223 55.7353 28.9567 55.6975 29.0028C55.6597 29.0488 55.6407 29.1065 55.6407 29.1758ZM57.6976 30.2971C57.7646 30.2971 57.8195 30.2938 57.8622 30.2873C57.9049 30.2808 57.937 30.2733 57.9587 30.2646V30.0387H57.7624C57.7149 30.0387 57.6773 30.0352 57.6497 30.0282C57.6222 30.0211 57.6027 30.0049 57.5914 29.9794C57.58 29.954 57.5743 29.9136 57.5743 29.8583L57.5727 28.8557H57.9489V28.6038H57.5727V28.1115H57.3214L57.2354 28.6055H56.9533V28.8557H57.2257V29.8713C57.2257 29.9613 57.239 30.0379 57.2654 30.1013C57.2919 30.1647 57.3395 30.2131 57.4081 30.2467C57.4768 30.2803 57.5733 30.2971 57.6976 30.2971ZM62.5338 30.3182C62.6808 30.3182 62.8084 30.2968 62.9165 30.254C63.0246 30.2112 63.1151 30.1525 63.1881 30.0777C63.2611 30.003 63.3181 29.9182 63.3592 29.8234C63.4002 29.7286 63.4273 29.6298 63.4402 29.5268H63.0705C63.0543 29.6157 63.0232 29.6977 62.9773 29.773C62.9313 29.8483 62.8705 29.9085 62.7949 29.9534C62.7192 29.9984 62.6295 30.0208 62.5257 30.0208C62.3246 30.0208 62.1706 29.9475 62.0635 29.8007C61.9565 29.6539 61.903 29.4218 61.903 29.1043C61.903 28.8942 61.927 28.7225 61.9752 28.5892C62.0233 28.456 62.0938 28.3579 62.1868 28.2951C62.2797 28.2323 62.3927 28.2008 62.5257 28.2008C62.6295 28.2008 62.7192 28.2217 62.7949 28.2634C62.8705 28.3051 62.9313 28.362 62.9773 28.434C63.0232 28.5061 63.0543 28.5865 63.0705 28.6753H63.4402C63.4251 28.5334 63.3778 28.404 63.2983 28.287C63.2189 28.17 63.1138 28.0768 62.983 28.0075C62.8521 27.9381 62.7024 27.9035 62.5338 27.9035C62.3208 27.9035 62.1387 27.9506 61.9873 28.0448C61.836 28.1391 61.7203 28.2753 61.6403 28.4535C61.5603 28.6317 61.5203 28.8471 61.5203 29.0995C61.5203 29.353 61.5606 29.5705 61.6411 29.7519C61.7217 29.9334 61.8376 30.0731 61.9889 30.1712C62.1403 30.2692 62.3219 30.3182 62.5338 30.3182ZM66.3454 30.3182C66.4567 30.3182 66.5632 30.2979 66.6648 30.2573C66.7664 30.2167 66.8532 30.1563 66.9251 30.0761C66.997 29.9959 67.0426 29.8984 67.0621 29.7836H66.741C66.7183 29.8735 66.6705 29.9412 66.5975 29.9867C66.5245 30.0322 66.4383 30.055 66.3389 30.055C66.2394 30.055 66.1562 30.032 66.0892 29.9859C66.0221 29.9399 65.9721 29.877 65.9392 29.7974C65.9062 29.7178 65.8897 29.6276 65.8897 29.5268H67.0702V29.4115C67.0702 29.2414 67.0415 29.0938 66.9843 28.9687C66.927 28.8435 66.8429 28.7463 66.7321 28.677C66.6213 28.6076 66.4848 28.573 66.3227 28.573C66.1583 28.573 66.0178 28.6109 65.9011 28.6867C65.7843 28.7626 65.6951 28.8674 65.6335 29.0012C65.5719 29.135 65.5411 29.2891 65.5411 29.4635C65.5411 29.6401 65.5749 29.7923 65.6424 29.9201C65.71 30.0479 65.8043 30.1462 65.9254 30.215C66.0465 30.2838 66.1864 30.3182 66.3454 30.3182ZM65.8897 29.301H66.7394C66.7394 29.2132 66.7243 29.1333 66.694 29.0613C66.6637 28.9892 66.6175 28.9324 66.5554 28.8907C66.4932 28.849 66.4151 28.8281 66.321 28.8281C66.2248 28.8281 66.1448 28.8514 66.081 28.898C66.0173 28.9446 65.9694 29.0041 65.9375 29.0767C65.9056 29.1493 65.8897 29.2241 65.8897 29.301ZM68.0896 30.3182C68.2128 30.3182 68.3233 30.2944 68.4212 30.2467C68.519 30.1991 68.5984 30.1324 68.6595 30.0468C68.7206 29.9613 68.7571 29.8621 68.769 29.7495H68.4739C68.4652 29.8004 68.4452 29.8497 68.4139 29.8973C68.3825 29.945 68.3401 29.984 68.2866 30.0143C68.2331 30.0447 68.1701 30.0598 68.0977 30.0598C67.9474 30.0598 67.8331 30.0046 67.7547 29.8941C67.6763 29.7836 67.6371 29.6352 67.6371 29.4488C67.6371 29.2452 67.6793 29.0941 67.7636 28.9955C67.8479 28.8969 67.9571 28.8476 68.0912 28.8476C68.1647 28.8476 68.2282 28.862 68.2817 28.8907C68.3352 28.9194 68.3779 28.9576 68.4098 29.0052C68.4417 29.0529 68.4625 29.1043 68.4722 29.1596H68.7722C68.7593 29.0426 68.7225 28.9402 68.662 28.8525C68.6014 28.7647 68.5222 28.6962 68.4244 28.6469C68.3266 28.5976 68.215 28.573 68.0896 28.573C67.9263 28.573 67.786 28.6098 67.6688 28.6835C67.5515 28.7571 67.462 28.8601 67.4004 28.9922C67.3388 29.1244 67.308 29.2777 67.308 29.4521C67.308 29.6373 67.3412 29.7947 67.4077 29.9242C67.4742 30.0536 67.5663 30.1517 67.6842 30.2183C67.802 30.2849 67.9371 30.3182 68.0896 30.3182ZM69.4536 29.7885V30.2857H69.1066V27.871H69.4536V29.4066L70.1946 28.6055H70.5838L69.9774 29.2538L70.6195 30.2857H70.2595L69.7552 29.4748L69.4536 29.7885ZM71.2731 28.2805V27.9376H70.9244V28.2805H71.2731ZM71.2666 28.6055V30.2857H70.9326V28.6055H71.2666ZM72.0807 30.2857V29.1758C72.0807 29.1065 72.0996 29.0488 72.1375 29.0028C72.1753 28.9567 72.225 28.9223 72.2867 28.8996C72.3483 28.8768 72.4131 28.8655 72.4812 28.8655C72.5829 28.8655 72.6658 28.8947 72.7302 28.9532C72.7945 29.0117 72.8266 29.1011 72.8266 29.2213V30.2857H73.1736V29.184C73.1736 29.0442 73.1466 28.9302 73.0926 28.8419C73.0385 28.7536 72.9669 28.6886 72.8777 28.6469C72.7885 28.6052 72.6915 28.5843 72.5866 28.5843C72.498 28.5843 72.4199 28.5968 72.3523 28.6217C72.2848 28.6466 72.228 28.6791 72.1821 28.7192C72.1361 28.7593 72.0996 28.8021 72.0726 28.8476V28.6055H71.7337V30.2857H72.0807ZM74.9305 30.6944C74.7911 30.7925 74.5792 30.8415 74.2949 30.8415C74.0224 30.8415 73.8116 30.8033 73.6624 30.7269C73.5133 30.6505 73.4387 30.5441 73.4387 30.4076C73.4387 30.348 73.453 30.2974 73.4816 30.2557C73.5103 30.214 73.5443 30.1796 73.5838 30.1525C73.6233 30.1254 73.6597 30.104 73.6933 30.0883C73.7268 30.0726 73.7484 30.0615 73.7581 30.055L73.6876 30.0135C73.6589 29.9967 73.6333 29.974 73.6106 29.9453C73.5879 29.9166 73.5765 29.8789 73.5765 29.8323C73.5765 29.7782 73.6022 29.7281 73.6535 29.682C73.7049 29.636 73.7819 29.6021 73.8846 29.5805C73.783 29.5306 73.7043 29.4635 73.6487 29.379C73.593 29.2945 73.5652 29.2046 73.5652 29.1092C73.5652 28.9998 73.596 28.9053 73.6576 28.8257C73.7192 28.746 73.806 28.6851 73.9178 28.6428C74.0297 28.6006 74.1613 28.5795 74.3127 28.5795C74.423 28.5795 74.5154 28.5919 74.59 28.6168C74.6646 28.6418 74.7332 28.6764 74.7959 28.7208C74.8165 28.7133 74.8456 28.7016 74.8835 28.6859C74.9213 28.6702 74.9632 28.6531 75.0092 28.6347C75.0551 28.6163 75.0989 28.5984 75.1405 28.5811L75.2418 28.5388L75.2402 28.8411L74.9483 28.8947C74.9635 28.9272 74.9756 28.963 74.9848 29.002C74.994 29.041 74.9986 29.0767 74.9986 29.1092C74.9986 29.2067 74.9721 29.2964 74.9192 29.3782C74.8662 29.46 74.7867 29.5252 74.6808 29.574C74.5748 29.6227 74.4424 29.6471 74.2835 29.6471C74.2684 29.6471 74.2489 29.6468 74.2251 29.6463C74.2013 29.6457 74.1813 29.6444 74.1651 29.6422C74.0646 29.6455 73.9954 29.6571 73.9576 29.6772C73.9197 29.6972 73.9008 29.7191 73.9008 29.743C73.9008 29.7733 73.9251 29.7939 73.9738 29.8047C74.0224 29.8156 74.1024 29.8248 74.2138 29.8323C74.2538 29.8356 74.3049 29.8388 74.367 29.8421C74.4292 29.8453 74.4981 29.8497 74.5738 29.8551C74.7575 29.8659 74.8978 29.912 74.9946 29.9932C75.0913 30.0745 75.1397 30.1823 75.1397 30.3166C75.1397 30.4704 75.07 30.5964 74.9305 30.6944ZM74.2932 29.4342C74.1732 29.4342 74.08 29.4061 74.0135 29.3497C73.947 29.2934 73.9138 29.2154 73.9138 29.1157C73.9138 29.0106 73.9487 28.9288 74.0184 28.8703C74.0881 28.8118 74.1797 28.7826 74.2932 28.7826C74.4057 28.7826 74.4962 28.8116 74.5648 28.8695C74.6335 28.9275 74.6678 29.0096 74.6678 29.1157C74.6678 29.2186 74.6335 29.2975 74.5648 29.3522C74.4962 29.4069 74.4057 29.4342 74.2932 29.4342ZM73.9211 30.5612C74.0146 30.6061 74.1592 30.6286 74.3549 30.6286C74.503 30.6286 74.6146 30.6072 74.6897 30.5644C74.7648 30.5216 74.8024 30.458 74.8024 30.3735C74.8024 30.3106 74.7781 30.2592 74.7294 30.2191C74.6808 30.179 74.6084 30.1557 74.5121 30.1492L74.0646 30.12C74.0203 30.1178 73.9762 30.1276 73.9324 30.1492C73.8887 30.1709 73.8524 30.201 73.8238 30.2394C73.7951 30.2779 73.7808 30.3204 73.7808 30.367C73.7808 30.4515 73.8276 30.5162 73.9211 30.5612Z" fill="#9597A5"/>
<path id="$1,911.41" fill-rule="evenodd" clip-rule="evenodd" d="M48.1935 38.33L48.193 37.7608L48.303 37.7467C48.4247 37.7281 48.5394 37.7001 48.6469 37.6627L48.7521 37.6223C48.992 37.5207 49.1782 37.3794 49.3107 37.1983C49.4432 37.0172 49.5095 36.808 49.5095 36.5706C49.5095 36.2748 49.4282 36.0173 49.2655 35.798C49.1029 35.5787 48.8339 35.4188 48.4585 35.3182L47.7387 35.122C47.4657 35.0415 47.2775 34.958 47.1741 34.8715C47.0707 34.785 47.019 34.6673 47.019 34.5184C47.019 34.4078 47.0436 34.3097 47.0928 34.2242C47.142 34.1387 47.2087 34.0668 47.293 34.0084C47.3774 33.9501 47.4747 33.9058 47.5851 33.8756C47.6956 33.8455 47.812 33.8304 47.9345 33.8304C48.1894 33.8304 48.3837 33.8943 48.5172 34.022C48.6507 34.1498 48.7375 34.3344 48.7777 34.5758L49.4312 34.5486C49.4252 34.3233 49.3614 34.1156 49.2399 33.9254C49.1185 33.7353 48.9468 33.5829 48.725 33.4682C48.5863 33.3966 48.431 33.3473 48.259 33.3204L48.2264 33.3166L48.2266 32.7047H47.6424L47.6421 33.3139L47.5502 33.3259C47.4293 33.3456 47.3148 33.3753 47.2065 33.4148L47.1003 33.4577C46.8574 33.5653 46.6672 33.7157 46.5296 33.9088C46.3921 34.102 46.3243 34.3273 46.3264 34.5848C46.3284 34.8927 46.4252 35.1376 46.617 35.3197C46.8087 35.5018 47.0672 35.632 47.3924 35.7105L48.1332 35.8976C48.3701 35.958 48.5443 36.0405 48.6557 36.1451C48.7671 36.2497 48.8229 36.3945 48.8229 36.5796C48.8229 36.7104 48.7807 36.8251 48.6964 36.9237C48.6121 37.0223 48.5006 37.0992 48.3621 37.1545C48.2236 37.2099 48.074 37.2375 47.9134 37.2375C47.6444 37.2375 47.4175 37.1787 47.2328 37.061C47.0481 36.9433 46.9266 36.7678 46.8684 36.5344L46.1938 36.5676C46.2481 36.9699 46.4292 37.2717 46.7374 37.4729C46.9531 37.6138 47.2104 37.7053 47.5093 37.7476L47.612 37.7594L47.6122 38.33H48.1935ZM51.517 37.7144V33.3505H51.0683C51.0603 33.4692 51.0236 33.5693 50.9584 33.6508C50.8931 33.7323 50.7867 33.7937 50.6392 33.8349C50.4916 33.8761 50.2893 33.8968 50.0323 33.8968V34.2981H50.8575V37.7144H51.517ZM53.2305 37.6208L52.6945 38.496H52.4174L52.7577 37.7294L52.4837 37.7113V36.9931H53.2305V37.6208ZM55.3472 37.7807C55.7186 37.7807 56.0353 37.6912 56.2973 37.5122C56.5593 37.3331 56.7586 37.071 56.8951 36.726C57.0316 36.381 57.0999 35.959 57.0999 35.46C57.0999 35.0114 57.0316 34.6251 56.8951 34.3012C56.7586 33.9772 56.5638 33.7278 56.3109 33.5527C56.0579 33.3777 55.7588 33.2902 55.4135 33.2902C55.0983 33.2902 54.8257 33.3536 54.5958 33.4803C54.366 33.6071 54.1883 33.7821 54.0628 34.0054C53.9373 34.2287 53.8746 34.4852 53.8746 34.775C53.8746 35.0647 53.9368 35.3136 54.0613 35.5219C54.1858 35.7301 54.3584 35.8906 54.5793 36.0032C54.8001 36.1159 55.0551 36.1722 55.3442 36.1722C55.5229 36.1722 55.6855 36.1421 55.8321 36.0817C55.9786 36.0213 56.1051 35.9383 56.2115 35.8327C56.3179 35.7271 56.3972 35.6039 56.4494 35.463C56.4715 35.8795 56.4389 36.2195 56.3515 36.4831C56.2642 36.7466 56.1322 36.9408 55.9555 37.0655C55.7788 37.1903 55.569 37.2526 55.3261 37.2526C55.1093 37.2526 54.9261 37.1933 54.7765 37.0746C54.627 36.9559 54.5291 36.801 54.4829 36.6098H53.8626C53.8907 36.8512 53.9755 37.059 54.117 37.233C54.2586 37.407 54.4367 37.5418 54.6516 37.6374C54.8664 37.733 55.0983 37.7807 55.3472 37.7807ZM54.7931 35.3966C54.9417 35.5556 55.1535 35.6351 55.4285 35.6351C55.5791 35.6351 55.7226 35.6008 55.8592 35.5324C55.9957 35.464 56.1076 35.373 56.1949 35.2593C56.2823 35.1457 56.3259 35.0234 56.3259 34.8927C56.3279 34.6754 56.2913 34.4852 56.216 34.3223C56.1407 34.1593 56.0353 34.0321 55.8998 33.9405C55.7643 33.849 55.6052 33.8032 55.4225 33.8032C55.2579 33.8032 55.1113 33.8429 54.9828 33.9224C54.8543 34.0019 54.7534 34.1125 54.6802 34.2544C54.6069 34.3962 54.5702 34.5597 54.5702 34.7448C54.5702 35.0204 54.6445 35.2377 54.7931 35.3966ZM59.0491 37.7144V33.3505H58.6003C58.5923 33.4692 58.5557 33.5693 58.4904 33.6508C58.4252 33.7323 58.3188 33.7937 58.1712 33.8349C58.0236 33.8761 57.8214 33.8968 57.5644 33.8968V34.2981H58.3895V37.7144H59.0491ZM61.4402 33.3505V37.7144H60.7806V34.2981H59.9555V33.8968C60.2125 33.8968 60.4148 33.8761 60.5623 33.8349C60.7099 33.7937 60.8163 33.7323 60.8815 33.6508C60.9468 33.5693 60.9834 33.4692 60.9914 33.3505H61.4402ZM63.1386 37.7144V36.9357H62.3948V37.7144H63.1386ZM66.3146 36.64V37.7144H65.6882V36.64H63.6494V36.0726L65.6671 33.3505H66.3146V36.0817H67.0223V36.64H66.3146ZM65.6792 36.0817H64.2578L65.6792 34.1714V36.0817ZM68.8702 33.3505V37.7144H68.2107V34.2981H67.3855V33.8968C67.6425 33.8968 67.8448 33.8761 67.9924 33.8349C68.1399 33.7937 68.2463 33.7323 68.3116 33.6508C68.3768 33.5693 68.4135 33.4692 68.4215 33.3505H68.8702Z" fill="#2D314D"/>
</g>
<g id="Group 13 Copy 2">
<rect id="Rectangle Copy 3_3" x="40.1924" y="47.9286" width="79.6881" height="22.2857" rx="4" fill="white"/>
<path id="Account2Savings_2" fill-rule="evenodd" clip-rule="evenodd" d="M60.5601 56.2857V55.9834H59.3342V55.9428C59.3342 55.8572 59.3564 55.7841 59.4007 55.7234C59.445 55.6628 59.5034 55.6083 59.5759 55.5601C59.6483 55.5119 59.7277 55.4659 59.8142 55.422C59.9007 55.3781 59.9872 55.3321 60.0737 55.2839C60.1602 55.2357 60.2393 55.1802 60.3112 55.1173C60.3831 55.0545 60.4412 54.9797 60.4855 54.8931C60.5299 54.8064 60.552 54.7029 60.552 54.5827C60.552 54.4473 60.5196 54.3287 60.4547 54.2268C60.3899 54.125 60.2983 54.0456 60.1799 53.9888C60.0615 53.9319 59.9212 53.9034 59.7591 53.9034C59.5721 53.9034 59.4153 53.9376 59.2888 54.0058C59.1624 54.0741 59.0667 54.1656 59.0018 54.2804C58.937 54.3953 58.9029 54.5226 58.8997 54.6623H59.2402C59.2542 54.5193 59.3061 54.4072 59.3959 54.3259C59.4856 54.2447 59.6023 54.2041 59.7461 54.2041C59.8812 54.2041 59.9883 54.2393 60.0672 54.3097C60.1461 54.3801 60.1856 54.4717 60.1856 54.5843C60.1856 54.6699 60.1631 54.7444 60.1183 54.8078C60.0734 54.8711 60.0142 54.928 59.9407 54.9784C59.8672 55.0288 59.7867 55.0772 59.6991 55.1238C59.6115 55.1704 59.5237 55.2192 59.4356 55.2701C59.3475 55.321 59.2667 55.3792 59.1932 55.4448C59.1197 55.5103 59.0605 55.5869 59.0156 55.6747C58.9707 55.7624 58.9483 55.8659 58.9483 55.9851V56.2857H60.5601ZM46.3236 56.2857L46.549 55.6698H47.4749L47.6954 56.2857H48.0457L47.2008 53.9359H46.8181L45.9717 56.2857H46.3236ZM47.3857 55.3546H46.6317L47.0111 54.2772L47.3857 55.3546ZM49.3192 56.2467C49.2214 56.2944 49.1108 56.3182 48.9876 56.3182C48.8352 56.3182 48.7 56.2849 48.5822 56.2183C48.4644 56.1516 48.3722 56.0536 48.3057 55.9241C48.2392 55.7947 48.206 55.6373 48.206 55.4521C48.206 55.2777 48.2368 55.1244 48.2984 54.9922C48.36 54.86 48.4495 54.7571 48.5668 54.6834C48.6841 54.6098 48.8243 54.5729 48.9876 54.5729C49.113 54.5729 49.2246 54.5976 49.3224 54.6469C49.4203 54.6962 49.4995 54.7647 49.56 54.8524C49.6205 54.9402 49.6573 55.0426 49.6703 55.1596H49.3703C49.3605 55.1043 49.3397 55.0529 49.3078 55.0052C49.2759 54.9575 49.2332 54.9193 49.1797 54.8906C49.1262 54.8619 49.0627 54.8476 48.9892 54.8476C48.8552 54.8476 48.746 54.8969 48.6616 54.9954C48.5773 55.094 48.5352 55.2452 48.5352 55.4488C48.5352 55.6352 48.5744 55.7836 48.6527 55.8941C48.7311 56.0046 48.8454 56.0598 48.9957 56.0598C49.0681 56.0598 49.1311 56.0447 49.1846 56.0143C49.2381 55.984 49.2805 55.945 49.3119 55.8973C49.3432 55.8497 49.3632 55.8004 49.3719 55.7494H49.667C49.6551 55.8621 49.6186 55.9612 49.5576 56.0468C49.4965 56.1324 49.417 56.199 49.3192 56.2467ZM50.6873 56.3182C50.8105 56.3182 50.9211 56.2944 51.0189 56.2467C51.1167 56.199 51.1962 56.1324 51.2573 56.0468C51.3183 55.9612 51.3548 55.8621 51.3667 55.7494H51.0716C51.0629 55.8004 51.0429 55.8497 51.0116 55.8973C50.9802 55.945 50.9378 55.984 50.8843 56.0143C50.8308 56.0447 50.7678 56.0598 50.6954 56.0598C50.5451 56.0598 50.4308 56.0046 50.3524 55.8941C50.274 55.7836 50.2349 55.6352 50.2349 55.4488C50.2349 55.2452 50.277 55.094 50.3613 54.9954C50.4457 54.8969 50.5548 54.8476 50.6889 54.8476C50.7624 54.8476 50.8259 54.8619 50.8794 54.8906C50.9329 54.9193 50.9756 54.9575 51.0075 55.0052C51.0394 55.0529 51.0602 55.1043 51.07 55.1596H51.37C51.357 55.0426 51.3202 54.9402 51.2597 54.8524C51.1991 54.7647 51.12 54.6962 51.0221 54.6469C50.9243 54.5976 50.8127 54.5729 50.6873 54.5729C50.524 54.5729 50.3838 54.6098 50.2665 54.6834C50.1492 54.7571 50.0597 54.86 49.9981 54.9922C49.9365 55.1244 49.9057 55.2777 49.9057 55.4521C49.9057 55.6373 49.9389 55.7947 50.0054 55.9241C50.0719 56.0536 50.1641 56.1516 50.2819 56.2183C50.3997 56.2849 50.5348 56.3182 50.6873 56.3182ZM52.8094 56.2085C52.6943 56.2816 52.5529 56.3182 52.3854 56.3182C52.2286 56.3182 52.0916 56.2843 51.9743 56.2166C51.857 56.1489 51.7662 56.0506 51.7019 55.9217C51.6375 55.7928 51.6054 55.6368 51.6054 55.4537C51.6054 55.2771 51.6359 55.1227 51.697 54.9906C51.7581 54.8584 51.847 54.7558 51.9637 54.6826C52.0805 54.6095 52.2216 54.5729 52.387 54.5729C52.5448 54.5729 52.6816 54.6073 52.7972 54.6761C52.9129 54.7449 53.0026 54.8451 53.0664 54.9768C53.1302 55.1084 53.1621 55.2674 53.1621 55.4537C53.1621 55.6238 53.1321 55.7738 53.0721 55.9038C53.0121 56.0338 52.9245 56.1354 52.8094 56.2085ZM52.387 56.0501C52.2821 56.0501 52.1973 56.0224 52.1324 55.9672C52.0675 55.9119 52.0205 55.8383 51.9913 55.7462C51.9621 55.6541 51.9475 55.5534 51.9475 55.4439C51.9475 55.3204 51.964 55.2135 51.997 55.123C52.03 55.0325 52.0789 54.9627 52.1437 54.9134C52.2086 54.8641 52.2897 54.8394 52.387 54.8394C52.4908 54.8394 52.5745 54.8665 52.6383 54.9207C52.7021 54.9749 52.7483 55.0477 52.777 55.1393C52.8056 55.2308 52.8199 55.3324 52.8199 55.4439C52.8199 55.5642 52.8037 55.6701 52.7713 55.7616C52.7389 55.8532 52.6905 55.9241 52.6262 55.9745C52.5618 56.0249 52.4821 56.0501 52.387 56.0501ZM54.2903 56.2849C54.2216 56.3082 54.1489 56.3193 54.0722 56.3182C53.9879 56.3171 53.9073 56.3047 53.8306 56.2808C53.7538 56.257 53.6854 56.2212 53.6254 56.1736C53.5654 56.1259 53.5179 56.0669 53.4827 55.9964C53.4476 55.926 53.43 55.8442 53.43 55.7511V54.6054H53.7787V55.7137C53.7787 55.8144 53.81 55.8962 53.8727 55.9591C53.9354 56.0219 54.03 56.0533 54.1565 56.0533C54.2711 56.0533 54.363 56.0233 54.4322 55.9631C54.5014 55.903 54.5359 55.815 54.5359 55.6991V54.6054H54.8813V56.2857H54.6122L54.5732 55.9607C54.5538 56.0484 54.5189 56.1186 54.4687 56.1711C54.4184 56.2237 54.3589 56.2616 54.2903 56.2849ZM55.6407 56.2857V55.1758C55.6407 55.1065 55.6597 55.0488 55.6975 55.0028C55.7353 54.9567 55.7851 54.9223 55.8467 54.8996C55.9083 54.8768 55.9732 54.8654 56.0413 54.8654C56.1429 54.8654 56.2258 54.8947 56.2902 54.9532C56.3545 55.0117 56.3867 55.1011 56.3867 55.2213V56.2857H56.7337V55.1839C56.7337 55.0442 56.7066 54.9302 56.6526 54.8419C56.5985 54.7536 56.5269 54.6886 56.4377 54.6469C56.3485 54.6052 56.2515 54.5843 56.1467 54.5843C56.058 54.5843 55.9799 54.5968 55.9123 54.6217C55.8448 54.6466 55.788 54.6791 55.7421 54.7192C55.6961 54.7593 55.6597 54.8021 55.6326 54.8476V54.6054H55.2937V56.2857H55.6407ZM57.8622 56.2873C57.8195 56.2938 57.7646 56.2971 57.6976 56.2971C57.5733 56.2971 57.4768 56.2803 57.4081 56.2467C57.3395 56.2131 57.2919 56.1646 57.2654 56.1013C57.239 56.0379 57.2257 55.9612 57.2257 55.8713V54.8557H56.9533V54.6054H57.2354L57.3214 54.1114H57.5727V54.6038H57.9489V54.8557H57.5727L57.5743 55.8583C57.5743 55.9136 57.58 55.9539 57.5914 55.9794C57.6027 56.0048 57.6222 56.0211 57.6497 56.0281C57.6773 56.0352 57.7149 56.0387 57.7624 56.0387H57.9587V56.2646C57.937 56.2732 57.9049 56.2808 57.8622 56.2873ZM62.9473 56.2321C62.8132 56.2895 62.6527 56.3182 62.4657 56.3182C62.3543 56.3182 62.2457 56.3041 62.1397 56.2759C62.0338 56.2478 61.9376 56.2058 61.8511 56.15C61.7646 56.0942 61.693 56.0246 61.6363 55.9412C61.5795 55.8578 61.5441 55.7603 61.53 55.6487H61.8916C61.91 55.7332 61.9465 55.8042 62.0011 55.8616C62.0557 55.919 62.123 55.9623 62.203 55.9916C62.283 56.0208 62.37 56.0354 62.4641 56.0354C62.5678 56.0354 62.6611 56.0211 62.7438 55.9924C62.8265 55.9637 62.8921 55.9225 62.9408 55.8689C62.9894 55.8153 63.0138 55.7505 63.0138 55.6747C63.0138 55.6064 62.9973 55.5485 62.9643 55.5008C62.9313 55.4532 62.8849 55.4133 62.8249 55.3814C62.7649 55.3494 62.6927 55.3242 62.6084 55.3058L62.1641 55.2051C61.99 55.1682 61.853 55.0997 61.753 54.9995C61.653 54.8993 61.6025 54.7663 61.6014 54.6006C61.6003 54.4619 61.6368 54.3406 61.7108 54.2366C61.7849 54.1326 61.8862 54.0516 62.0149 53.9936C62.1435 53.9357 62.29 53.9067 62.4543 53.9067C62.6457 53.9067 62.8065 53.9387 62.9367 54.0026C63.067 54.0665 63.1657 54.1507 63.2327 54.2553C63.2997 54.3598 63.3338 54.4733 63.3348 54.5957H62.9797C62.9711 54.496 62.9419 54.4169 62.8921 54.3584C62.8424 54.2999 62.78 54.258 62.7049 54.2325C62.6297 54.207 62.5473 54.1943 62.4576 54.1943C62.3927 54.1943 62.3305 54.2024 62.2711 54.2187C62.2116 54.2349 62.1592 54.2588 62.1138 54.2902C62.0684 54.3216 62.0325 54.3603 62.006 54.4064C61.9795 54.4524 61.9662 54.5052 61.9662 54.5648C61.9662 54.645 61.9933 54.71 62.0473 54.7598C62.1014 54.8097 62.2008 54.8524 62.3457 54.8882L62.7803 54.9873C62.9046 55.0133 63.0051 55.0515 63.0819 55.1019C63.1586 55.1523 63.2175 55.2094 63.2586 55.2733C63.2997 55.3372 63.3278 55.4036 63.3429 55.4724C63.3581 55.5412 63.3656 55.607 63.3656 55.6698C63.3656 55.7912 63.3294 55.9008 63.257 55.9989C63.1846 56.0969 63.0813 56.1747 62.9473 56.2321ZM64.1916 56.3182C64.3116 56.3182 64.4195 56.2935 64.5151 56.2443C64.6108 56.195 64.69 56.1059 64.7527 55.9769L64.7803 56.2857H65.0738V55.1108C65.0738 54.996 65.0497 54.8985 65.0016 54.8183C64.9535 54.7382 64.8802 54.6772 64.7819 54.6355C64.6835 54.5938 64.5581 54.5729 64.4057 54.5729C64.2684 54.5729 64.1489 54.5924 64.0473 54.6314C63.9457 54.6704 63.866 54.7281 63.8081 54.8045C63.7503 54.8809 63.7181 54.9749 63.7116 55.0864H64.0133C64.0349 54.9922 64.0805 54.9245 64.1503 54.8833C64.22 54.8422 64.2997 54.8216 64.3895 54.8216C64.5084 54.8205 64.5965 54.8476 64.6538 54.9028C64.7111 54.9581 64.7397 55.0339 64.7397 55.1303V55.2522L64.464 55.2603C64.1754 55.2657 63.9651 55.3145 63.8333 55.4066C63.7014 55.4987 63.6354 55.6379 63.6354 55.8242C63.6354 55.9282 63.6592 56.017 63.7068 56.0907C63.7543 56.1644 63.82 56.2207 63.9038 56.2597C63.9876 56.2987 64.0835 56.3182 64.1916 56.3182ZM64.0635 56.0005C64.1262 56.0509 64.2051 56.0761 64.3003 56.0761C64.3532 56.0761 64.4057 56.0666 64.4576 56.0476C64.5095 56.0287 64.5565 56.0027 64.5986 55.9696C64.6408 55.9366 64.6746 55.8995 64.7 55.8583C64.7254 55.8172 64.7386 55.7749 64.7397 55.7316V55.4537L64.5127 55.4586C64.397 55.4597 64.2989 55.4716 64.2184 55.4943C64.1378 55.5171 64.0762 55.5523 64.0335 55.5999C63.9908 55.6476 63.9695 55.711 63.9695 55.7901C63.9695 55.88 64.0008 55.9501 64.0635 56.0005ZM66.1909 56.2857L66.8006 54.6054H66.4795L66.0547 55.8453H66.032L65.6071 54.6054H65.2861L65.8974 56.2857H66.1909ZM67.4236 53.9376V54.2804H67.075V53.9376H67.4236ZM67.4171 56.2857V54.6054H67.0831V56.2857H67.4171ZM68.2312 55.1758V56.2857H67.8842V54.6054H68.2231V54.8476C68.2502 54.8021 68.2866 54.7593 68.3326 54.7192C68.3785 54.6791 68.4353 54.6466 68.5028 54.6217C68.5704 54.5968 68.6485 54.5843 68.7372 54.5843C68.842 54.5843 68.939 54.6052 69.0282 54.6469C69.1174 54.6886 69.189 54.7536 69.2431 54.8419C69.2971 54.9302 69.3242 55.0442 69.3242 55.1839V56.2857H68.9772V55.2213C68.9772 55.1011 68.945 55.0117 68.8807 54.9532C68.8163 54.8947 68.7334 54.8654 68.6318 54.8654C68.5637 54.8654 68.4988 54.8768 68.4372 54.8996C68.3756 54.9223 68.3258 54.9567 68.288 55.0028C68.2502 55.0488 68.2312 55.1065 68.2312 55.1758ZM70.4454 56.8414C70.7297 56.8414 70.9416 56.7924 71.081 56.6944C71.2205 56.5963 71.2902 56.4704 71.2902 56.3166C71.2902 56.1822 71.2418 56.0744 71.1451 55.9932C71.0483 55.9119 70.9081 55.8659 70.7243 55.8551C70.6486 55.8497 70.5797 55.8453 70.5175 55.8421C70.4554 55.8388 70.4043 55.8356 70.3643 55.8323C70.2529 55.8247 70.173 55.8155 70.1243 55.8047C70.0757 55.7939 70.0513 55.7733 70.0513 55.7429C70.0513 55.7191 70.0703 55.6972 70.1081 55.6771C70.1459 55.6571 70.2151 55.6454 70.3156 55.6422C70.3319 55.6444 70.3519 55.6457 70.3756 55.6463C70.3994 55.6468 70.4189 55.6471 70.434 55.6471C70.5929 55.6471 70.7254 55.6227 70.8313 55.5739C70.9372 55.5252 71.0167 55.4599 71.0697 55.3781C71.1226 55.2963 71.1491 55.2067 71.1491 55.1092C71.1491 55.0767 71.1445 55.0409 71.1353 55.0019C71.1262 54.9629 71.114 54.9272 71.0989 54.8947L71.3907 54.8411L71.3924 54.5388L71.291 54.5811C71.2494 54.5984 71.2056 54.6163 71.1597 54.6347C71.1137 54.6531 71.0718 54.6702 71.034 54.6859C70.9962 54.7016 70.967 54.7132 70.9464 54.7208C70.8837 54.6764 70.8151 54.6417 70.7405 54.6168C70.6659 54.5919 70.5735 54.5794 70.4632 54.5794C70.3119 54.5794 70.1802 54.6006 70.0684 54.6428C69.9565 54.6851 69.8697 54.746 69.8081 54.8256C69.7465 54.9053 69.7157 54.9998 69.7157 55.1092C69.7157 55.2045 69.7435 55.2944 69.7992 55.3789C69.8549 55.4634 69.9335 55.5306 70.0351 55.5804C69.9324 55.6021 69.8554 55.636 69.804 55.682C69.7527 55.728 69.727 55.7782 69.727 55.8323C69.727 55.8789 69.7384 55.9165 69.7611 55.9453C69.7838 55.974 69.8095 55.9967 69.8381 56.0135L69.9086 56.0549C69.8989 56.0614 69.8773 56.0725 69.8438 56.0883C69.8103 56.104 69.7738 56.1254 69.7343 56.1524C69.6949 56.1795 69.6608 56.2139 69.6322 56.2556C69.6035 56.2973 69.5892 56.348 69.5892 56.4076C69.5892 56.5441 69.6638 56.6505 69.813 56.7269C69.9621 56.8033 70.173 56.8414 70.4454 56.8414ZM70.164 55.3497C70.2305 55.406 70.3238 55.4342 70.4438 55.4342C70.5562 55.4342 70.6467 55.4068 70.7154 55.3521C70.784 55.2974 70.8183 55.2186 70.8183 55.1157C70.8183 55.0095 70.784 54.9275 70.7154 54.8695C70.6467 54.8115 70.5562 54.7826 70.4438 54.7826C70.3302 54.7826 70.2386 54.8118 70.1689 54.8703C70.0992 54.9288 70.0643 55.0106 70.0643 55.1157C70.0643 55.2154 70.0975 55.2934 70.164 55.3497ZM70.5054 56.6286C70.3097 56.6286 70.1651 56.6061 70.0716 56.5611C69.9781 56.5162 69.9313 56.4514 69.9313 56.3669C69.9313 56.3204 69.9457 56.2778 69.9743 56.2394C70.003 56.2009 70.0392 56.1709 70.083 56.1492C70.1267 56.1275 70.1708 56.1178 70.2151 56.1199L70.6627 56.1492C70.7589 56.1557 70.8313 56.179 70.8799 56.2191C70.9286 56.2592 70.9529 56.3106 70.9529 56.3734C70.9529 56.4579 70.9154 56.5216 70.8402 56.5644C70.7651 56.6072 70.6535 56.6286 70.5054 56.6286ZM72.6033 56.2573C72.5043 56.2979 72.3868 56.3182 72.2506 56.3182C72.1338 56.3182 72.0244 56.2998 71.9222 56.2629C71.8201 56.2261 71.7346 56.1682 71.666 56.0891C71.5974 56.01 71.5544 55.9087 71.5371 55.7852H71.8468C71.8609 55.8491 71.8876 55.9019 71.9271 55.9436C71.9665 55.9853 72.0141 56.0162 72.0698 56.0363C72.1254 56.0563 72.1852 56.0663 72.249 56.0663C72.3549 56.0663 72.4406 56.0471 72.506 56.0086C72.5714 55.9702 72.6041 55.9109 72.6041 55.8307C72.6041 55.7733 72.5865 55.7272 72.5514 55.6926C72.5162 55.6579 72.4608 55.6324 72.3852 55.6162L72.0511 55.5366C71.9128 55.5041 71.8019 55.4523 71.7187 55.3814C71.6355 55.3104 71.5933 55.211 71.5922 55.0832C71.5922 54.9846 71.6168 54.8969 71.666 54.8199C71.7152 54.743 71.7884 54.6826 71.8857 54.6388C71.983 54.5949 72.1041 54.5729 72.249 54.5729C72.4381 54.5729 72.59 54.6152 72.7046 54.6997C72.8192 54.7842 72.8787 54.9066 72.883 55.0669H72.583C72.5722 54.99 72.5373 54.9296 72.4784 54.8858C72.4195 54.8419 72.3419 54.8199 72.2457 54.8199C72.1463 54.8199 72.0646 54.8397 72.0009 54.8793C71.9371 54.9188 71.9052 54.9792 71.9052 55.0604C71.9052 55.1157 71.9284 55.1593 71.9749 55.1913C72.0214 55.2232 72.0911 55.2495 72.1841 55.2701L72.5019 55.3497C72.5841 55.3714 72.6516 55.3998 72.7046 55.435C72.7576 55.4702 72.7992 55.5089 72.8295 55.5512C72.8597 55.5934 72.8811 55.6373 72.8935 55.6828C72.906 55.7283 72.9122 55.7711 72.9122 55.8112C72.9122 55.9174 72.8854 56.0081 72.8319 56.0834C72.7784 56.1587 72.7022 56.2166 72.6033 56.2573Z" fill="#9597A5"/>
<path id="$20,475.00" fill-rule="evenodd" clip-rule="evenodd" d="M48.193 63.7608L48.1935 64.33H47.6122L47.612 63.7594L47.5093 63.7476C47.2104 63.7053 46.9531 63.6138 46.7374 63.4729C46.4292 63.2717 46.2481 62.9699 46.1938 62.5676L46.8684 62.5344C46.9266 62.7678 47.0481 62.9433 47.2328 63.061C47.4175 63.1787 47.6444 63.2375 47.9134 63.2375C48.074 63.2375 48.2236 63.2099 48.3621 63.1545C48.5006 63.0992 48.6121 63.0223 48.6964 62.9237C48.7807 62.8251 48.8229 62.7104 48.8229 62.5796C48.8229 62.3945 48.7671 62.2497 48.6557 62.1451C48.5443 62.0405 48.3701 61.958 48.1332 61.8976L47.3924 61.7105C47.0672 61.632 46.8087 61.5018 46.617 61.3197C46.4252 61.1376 46.3284 60.8927 46.3264 60.5848C46.3243 60.3273 46.3921 60.102 46.5296 59.9088C46.6672 59.7157 46.8574 59.5653 47.1003 59.4577L47.2065 59.4148C47.3148 59.3753 47.4293 59.3456 47.5502 59.3259L47.6421 59.3139L47.6424 58.7047H48.2266L48.2264 59.3166L48.259 59.3204C48.431 59.3473 48.5863 59.3966 48.725 59.4682C48.9468 59.5829 49.1185 59.7353 49.2399 59.9254C49.3614 60.1156 49.4252 60.3233 49.4312 60.5486L48.7777 60.5758C48.7375 60.3344 48.6507 60.1498 48.5172 60.022C48.3837 59.8943 48.1894 59.8304 47.9345 59.8304C47.812 59.8304 47.6956 59.8455 47.5851 59.8756C47.4747 59.9058 47.3774 59.9501 47.293 60.0084C47.2087 60.0668 47.142 60.1387 47.0928 60.2242C47.0436 60.3097 47.019 60.4078 47.019 60.5184C47.019 60.6673 47.0707 60.785 47.1741 60.8715C47.2775 60.958 47.4657 61.0415 47.7387 61.122L48.4585 61.3182C48.8339 61.4188 49.1029 61.5787 49.2655 61.798C49.4282 62.0173 49.5095 62.2748 49.5095 62.5706C49.5095 62.808 49.4432 63.0172 49.3107 63.1983C49.1782 63.3794 48.992 63.5207 48.7521 63.6223L48.6469 63.6627C48.5394 63.7001 48.4247 63.7281 48.303 63.7467L48.193 63.7608ZM53.1161 63.153V63.7144H50.1227V63.1561C50.1227 62.9347 50.1643 62.7426 50.2477 62.5796C50.331 62.4167 50.4409 62.2743 50.5774 62.1526C50.7139 62.0309 50.864 61.9228 51.0276 61.8282C51.1913 61.7336 51.3544 61.6431 51.517 61.5566C51.6796 61.4701 51.8292 61.38 51.9657 61.2865C52.1022 61.1929 52.2121 61.0873 52.2955 60.9696C52.3788 60.8519 52.4204 60.7136 52.4204 60.5547C52.4204 60.3454 52.3472 60.1754 52.2006 60.0446C52.054 59.9139 51.8553 59.8485 51.6043 59.8485C51.3373 59.8485 51.1205 59.9239 50.9538 60.0748C50.7872 60.2257 50.6908 60.4339 50.6647 60.6995H50.0323C50.0384 60.44 50.1016 60.2036 50.2221 59.9903C50.3425 59.7771 50.5202 59.6071 50.7551 59.4803C50.99 59.3536 51.2811 59.2902 51.6284 59.2902C51.9296 59.2902 52.1901 59.343 52.4099 59.4486C52.6297 59.5542 52.7999 59.7016 52.9203 59.8907C53.0408 60.0798 53.101 60.3002 53.101 60.5516C53.101 60.775 53.0599 60.9671 52.9776 61.1281C52.8952 61.289 52.7873 61.4278 52.6538 61.5445C52.5203 61.6612 52.3733 61.7643 52.2126 61.8538C52.052 61.9434 51.8914 62.0289 51.7308 62.1104C51.5702 62.1918 51.4226 62.2774 51.2881 62.3669C51.1536 62.4564 51.0452 62.5575 50.9629 62.6702C50.8806 62.7828 50.8394 62.9186 50.8394 63.0776V63.153H53.1161ZM55.1885 63.7807C55.6784 63.7807 56.0654 63.5911 56.3495 63.2119C56.6335 62.8326 56.7756 62.2758 56.7756 61.5415C56.7756 60.8031 56.6325 60.2433 56.3464 59.8621C56.0604 59.4808 55.6754 59.2902 55.1915 59.2902C54.8683 59.2902 54.5877 59.3757 54.3498 59.5467C54.1119 59.7177 53.9277 59.9707 53.7972 60.3057C53.6667 60.6407 53.6015 61.0546 53.6015 61.5475C53.6015 62.2819 53.743 62.8377 54.0261 63.2149C54.3092 63.5921 54.6967 63.7807 55.1885 63.7807ZM54.5155 62.8362C54.6691 63.0997 54.8944 63.2315 55.1915 63.2315C55.4887 63.2315 55.7115 63.1002 55.8601 62.8377C56.0087 62.5751 56.0829 62.1441 56.0829 61.5445C56.0829 60.9329 56.0077 60.4928 55.8571 60.2242C55.7065 59.9556 55.4837 59.8213 55.1885 59.8213C54.8954 59.8213 54.6716 59.9566 54.517 60.2272C54.3624 60.4978 54.2851 60.9369 54.2851 61.5445C54.2851 62.1421 54.3619 62.5726 54.5155 62.8362ZM57.5083 64.496L58.0443 63.6208V62.9931H57.2975V63.7113L57.5715 63.7294L57.2313 64.496H57.5083ZM61.2873 62.64V63.7144H60.6609V62.64H58.6222V62.0726L60.6399 59.3505H61.2873V62.0817H61.995V62.64H61.2873ZM60.6519 62.0817H59.2305L60.6519 60.1714V62.0817ZM63.9724 63.058C63.9042 63.3085 63.862 63.5272 63.8459 63.7144H63.1443C63.1724 63.5212 63.2256 63.2808 63.3039 62.9931C63.3822 62.7054 63.4881 62.39 63.6216 62.047C63.7551 61.704 63.9172 61.3484 64.1079 60.9802C64.2987 60.612 64.5205 60.2509 64.7735 59.8968H62.3583V59.3505H65.4691V59.8968C65.3186 60.1 65.169 60.3313 65.0204 60.5909C64.8719 60.8504 64.7308 61.1225 64.5973 61.4072C64.4638 61.6919 64.3433 61.9756 64.2359 62.2582C64.1285 62.5409 64.0407 62.8075 63.9724 63.058ZM67.6643 63.7807C67.9915 63.7807 68.2761 63.7194 68.518 63.5967C68.76 63.4739 68.9472 63.3009 69.0797 63.0776C69.2122 62.8543 69.2784 62.5907 69.2784 62.2869C69.2784 61.9791 69.2112 61.7201 69.0767 61.5098C68.9422 61.2996 68.763 61.1401 68.5391 61.0315C68.3153 60.9228 68.0678 60.8685 67.7968 60.8685C67.6041 60.8685 67.4254 60.8952 67.2608 60.9485C67.0961 61.0018 66.9395 61.0888 66.791 61.2095L66.8934 59.8968H68.9924L69.0134 59.3505H66.3603L66.1616 61.6049L66.6765 61.792C66.6966 61.802 66.7102 61.8071 66.7172 61.8071C66.7242 61.8071 66.7358 61.803 66.7518 61.795C66.8582 61.6864 66.9591 61.6044 67.0545 61.549C67.1498 61.4937 67.2457 61.4565 67.3421 61.4374C67.4384 61.4183 67.5418 61.4087 67.6523 61.4087C67.8289 61.4087 67.9885 61.4464 68.1311 61.5219C68.2736 61.5973 68.387 61.7025 68.4714 61.8372C68.5557 61.972 68.5979 62.129 68.5979 62.308C68.5979 62.5957 68.5075 62.8236 68.3268 62.9916C68.1461 63.1596 67.9082 63.2436 67.6131 63.2436C67.4264 63.2436 67.2608 63.2089 67.1162 63.1395C66.9717 63.07 66.8462 62.9735 66.7398 62.8497C66.6334 62.726 66.544 62.5857 66.4718 62.4287L65.9327 62.6853C66.013 62.9005 66.137 63.0902 66.3046 63.2541C66.4723 63.4181 66.6725 63.5469 66.9054 63.6404C67.1383 63.734 67.3913 63.7807 67.6643 63.7807ZM70.535 62.9357V63.7144H69.7911V62.9357H70.535ZM72.675 63.7807C73.1649 63.7807 73.5518 63.5911 73.8359 63.2119C74.12 62.8326 74.262 62.2758 74.262 61.5415C74.262 60.8031 74.119 60.2433 73.8329 59.8621C73.5468 59.4808 73.1619 59.2902 72.678 59.2902C72.3548 59.2902 72.0742 59.3757 71.8363 59.5467C71.5984 59.7177 71.4142 59.9707 71.2837 60.3057C71.1532 60.6407 71.088 61.0546 71.088 61.5475C71.088 62.2819 71.2295 62.8377 71.5126 63.2149C71.7957 63.5921 72.1831 63.7807 72.675 63.7807ZM72.0019 62.8362C72.1555 63.0997 72.3809 63.2315 72.678 63.2315C72.9751 63.2315 73.198 63.1002 73.3466 62.8377C73.4951 62.5751 73.5694 62.1441 73.5694 61.5445C73.5694 60.9329 73.4941 60.4928 73.3435 60.2242C73.193 59.9556 72.9701 59.8213 72.675 59.8213C72.3819 59.8213 72.158 59.9566 72.0034 60.2272C71.8489 60.4978 71.7716 60.9369 71.7716 61.5445C71.7716 62.1421 71.8484 62.5726 72.0019 62.8362ZM76.2867 63.7807C76.7766 63.7807 77.1635 63.5911 77.4476 63.2119C77.7317 62.8326 77.8737 62.2758 77.8737 61.5415C77.8737 60.8031 77.7307 60.2433 77.4446 59.8621C77.1585 59.4808 76.7735 59.2902 76.2897 59.2902C75.9665 59.2902 75.6859 59.3757 75.448 59.5467C75.2101 59.7177 75.0259 59.9707 74.8954 60.3057C74.7649 60.6407 74.6996 61.0546 74.6996 61.5475C74.6996 62.2819 74.8412 62.8377 75.1243 63.2149C75.4073 63.5921 75.7948 63.7807 76.2867 63.7807ZM75.6136 62.8362C75.7672 63.0997 75.9926 63.2315 76.2897 63.2315C76.5868 63.2315 76.8097 63.1002 76.9583 62.8377C77.1068 62.5751 77.1811 62.1441 77.1811 61.5445C77.1811 60.9329 77.1058 60.4928 76.9552 60.2242C76.8047 59.9556 76.5818 59.8213 76.2867 59.8213C75.9936 59.8213 75.7697 59.9566 75.6151 60.2272C75.4605 60.4978 75.3833 60.9369 75.3833 61.5445C75.3833 62.1421 75.46 62.5726 75.6136 62.8362Z" fill="#2D314D"/>
</g>
</g>
<rect id="Rectangle_2" opacity="0.5" x="34.8848" y="-60.4711" width="90.8073" height="130.464" fill="black"/>
<g id="Group 15">
<g id="Rectangle Copy 2" filter="url(#filter1_d_0_2730)">
<rect x="34.8848" y="70.2144" width="90.1068" height="91" fill="white"/>
</g>
<g id="Group 13 Copy 4">
<rect id="Rectangle Copy 3_4" x="40.0942" y="92.5001" width="79.6881" height="29.7143" rx="12" fill="url(#paint4_linear_0_2730)"/>
<path id="TotalChecking" fill-rule="evenodd" clip-rule="evenodd" d="M52.944 105.515C52.9154 105.52 52.8886 105.523 52.8637 105.523C52.7643 105.523 52.6845 105.51 52.6246 105.484C52.5646 105.458 52.5189 105.423 52.4875 105.379C52.4562 105.335 52.4354 105.285 52.4251 105.23C52.4148 105.174 52.4097 105.116 52.4097 105.056V103.085H52.7518V105.021C52.7518 105.099 52.7672 105.158 52.7981 105.199C52.8289 105.241 52.8762 105.264 52.9399 105.269L53.0275 105.273V105.494C53.0005 105.502 52.9726 105.509 52.944 105.515ZM46.9167 105.5V103.467H47.6253V103.15H45.8237V103.467H46.5664V105.5H46.9167ZM48.3306 105.533C48.4981 105.533 48.6395 105.496 48.7546 105.423C48.8697 105.35 48.9573 105.248 49.0173 105.118C49.0773 104.988 49.1073 104.838 49.1073 104.668C49.1073 104.482 49.0754 104.323 49.0116 104.191C48.9478 104.06 48.8581 103.959 48.7424 103.891C48.6268 103.822 48.49 103.787 48.3322 103.787C48.1668 103.787 48.0257 103.824 47.909 103.897C47.7922 103.97 47.7033 104.073 47.6422 104.205C47.5811 104.337 47.5506 104.491 47.5506 104.668C47.5506 104.851 47.5828 105.007 47.6471 105.136C47.7114 105.265 47.8022 105.363 47.9195 105.431C48.0368 105.499 48.1738 105.533 48.3306 105.533ZM48.0776 105.182C48.1425 105.237 48.2273 105.264 48.3322 105.264C48.4273 105.264 48.507 105.239 48.5714 105.189C48.6357 105.139 48.6841 105.068 48.7165 104.976C48.7489 104.884 48.7651 104.779 48.7651 104.658C48.7651 104.547 48.7508 104.445 48.7222 104.354C48.6935 104.262 48.6473 104.189 48.5835 104.135C48.5197 104.081 48.436 104.054 48.3322 104.054C48.2349 104.054 48.1538 104.078 48.0889 104.128C48.0241 104.177 47.9752 104.247 47.9422 104.337C47.9092 104.428 47.8927 104.535 47.8927 104.658C47.8927 104.768 47.9073 104.868 47.9365 104.961C47.9657 105.053 48.0127 105.126 48.0776 105.182ZM50.0223 105.511C50.0893 105.511 50.1441 105.508 50.1868 105.502C50.2295 105.495 50.2617 105.488 50.2833 105.479V105.253H50.0871C50.0395 105.253 50.002 105.25 49.9744 105.243C49.9468 105.235 49.9274 105.219 49.916 105.194C49.9047 105.168 49.899 105.128 49.899 105.073L49.8974 104.07H50.2736V103.818H49.8974V103.326H49.6461L49.5601 103.82H49.278V104.07H49.5504V105.086C49.5504 105.176 49.5636 105.252 49.5901 105.316C49.6166 105.379 49.6642 105.427 49.7328 105.461C49.8015 105.495 49.8979 105.511 50.0223 105.511ZM51.415 105.459C51.3193 105.508 51.2115 105.533 51.0915 105.533C50.9834 105.533 50.8874 105.513 50.8036 105.474C50.7199 105.435 50.6542 105.379 50.6066 105.305C50.5591 105.231 50.5353 105.143 50.5353 105.039C50.5353 104.852 50.6012 104.713 50.7331 104.621C50.865 104.529 51.0753 104.48 51.3639 104.475L51.6396 104.467V104.345C51.6396 104.248 51.6109 104.172 51.5536 104.117C51.4963 104.062 51.4082 104.035 51.2893 104.036C51.1996 104.036 51.1198 104.057 51.0501 104.098C50.9804 104.139 50.9347 104.207 50.9131 104.301H50.6115C50.618 104.189 50.6501 104.095 50.708 104.019C50.7658 103.943 50.8455 103.885 50.9471 103.846C51.0488 103.807 51.1682 103.787 51.3055 103.787C51.4579 103.787 51.5833 103.808 51.6817 103.85C51.7801 103.892 51.8533 103.953 51.9014 104.033C51.9495 104.113 51.9736 104.21 51.9736 104.325V105.5H51.6801L51.6525 105.191C51.5898 105.32 51.5106 105.409 51.415 105.459ZM51.2001 105.29C51.105 105.29 51.0261 105.265 50.9634 105.215C50.9007 105.165 50.8693 105.094 50.8693 105.004C50.8693 104.925 50.8907 104.862 50.9334 104.814C50.9761 104.767 51.0377 104.731 51.1182 104.709C51.1988 104.686 51.2969 104.674 51.4125 104.673L51.6396 104.668V104.946C51.6385 104.989 51.6252 105.032 51.5998 105.073C51.5744 105.114 51.5406 105.151 51.4985 105.184C51.4563 105.217 51.4093 105.243 51.3574 105.262C51.3055 105.281 51.2531 105.29 51.2001 105.29ZM54.9779 105.533C55.125 105.533 55.2525 105.511 55.3606 105.468C55.4687 105.426 55.5593 105.367 55.6322 105.292C55.7052 105.217 55.7622 105.133 55.8033 105.038C55.8444 104.943 55.8714 104.844 55.8844 104.741H55.5147C55.4985 104.83 55.4674 104.912 55.4214 104.987C55.3755 105.063 55.3147 105.123 55.239 105.168C55.1633 105.213 55.0736 105.235 54.9698 105.235C54.7688 105.235 54.6147 105.162 54.5077 105.015C54.4007 104.868 54.3472 104.636 54.3472 104.319C54.3472 104.109 54.3712 103.937 54.4193 103.804C54.4674 103.67 54.538 103.572 54.6309 103.509C54.7239 103.447 54.8369 103.415 54.9698 103.415C55.0736 103.415 55.1633 103.436 55.239 103.478C55.3147 103.519 55.3755 103.576 55.4214 103.648C55.4674 103.72 55.4985 103.801 55.5147 103.89H55.8844C55.8693 103.748 55.822 103.618 55.7425 103.501C55.663 103.384 55.5579 103.291 55.4271 103.222C55.2963 103.152 55.1466 103.118 54.9779 103.118C54.765 103.118 54.5828 103.165 54.4315 103.259C54.2801 103.353 54.1645 103.49 54.0845 103.668C54.0045 103.846 53.9645 104.061 53.9645 104.314C53.9645 104.567 54.0047 104.785 54.0853 104.966C54.1658 105.148 54.2818 105.287 54.4331 105.386C54.5844 105.484 54.7661 105.533 54.9779 105.533ZM56.6409 104.219C56.6036 104.265 56.5849 104.322 56.5849 104.392V105.5H56.2379V103.085H56.58V104.065C56.6071 104.021 56.6436 103.979 56.6895 103.938C56.7354 103.898 56.7917 103.866 56.8581 103.84C56.9246 103.815 57.0022 103.802 57.0908 103.802C57.2 103.802 57.2987 103.822 57.3868 103.863C57.4749 103.904 57.5451 103.962 57.5976 104.038C57.65 104.115 57.6762 104.205 57.6762 104.311V105.5H57.3292V104.374C57.3292 104.28 57.2968 104.207 57.2319 104.156C57.167 104.105 57.0838 104.08 56.9822 104.08C56.9141 104.08 56.8495 104.091 56.7884 104.115C56.7273 104.138 56.6781 104.173 56.6409 104.219ZM58.7895 105.533C58.9009 105.533 59.0073 105.512 59.109 105.472C59.2106 105.431 59.2973 105.371 59.3692 105.29C59.4411 105.21 59.4868 105.113 59.5062 104.998H59.1852C59.1625 105.088 59.1146 105.156 59.0417 105.201C58.9687 105.247 58.8825 105.269 58.783 105.269C58.6836 105.269 58.6003 105.246 58.5333 105.2C58.4663 105.154 58.4163 105.091 58.3833 105.012C58.3503 104.932 58.3339 104.842 58.3339 104.741H59.5144V104.626C59.5144 104.456 59.4857 104.308 59.4284 104.183C59.3711 104.058 59.2871 103.961 59.1763 103.891C59.0655 103.822 58.929 103.787 58.7668 103.787C58.6025 103.787 58.462 103.825 58.3452 103.901C58.2285 103.977 58.1393 104.082 58.0777 104.216C58.016 104.349 57.9852 104.503 57.9852 104.678C57.9852 104.854 58.019 105.007 58.0866 105.134C58.1541 105.262 58.2485 105.361 58.3695 105.429C58.4906 105.498 58.6306 105.533 58.7895 105.533ZM58.3339 104.515H59.1836C59.1836 104.428 59.1684 104.348 59.1382 104.276C59.1079 104.204 59.0617 104.147 58.9995 104.105C58.9374 104.063 58.8592 104.042 58.7652 104.042C58.669 104.042 58.589 104.066 58.5252 104.112C58.4614 104.159 58.4136 104.218 58.3817 104.291C58.3498 104.364 58.3339 104.438 58.3339 104.515ZM60.5337 105.533C60.6569 105.533 60.7675 105.509 60.8653 105.461C60.9632 105.413 61.0426 105.347 61.1037 105.261C61.1648 105.176 61.2013 105.076 61.2131 104.964H60.918C60.9094 105.015 60.8894 105.064 60.858 105.112C60.8267 105.159 60.7842 105.198 60.7307 105.229C60.6772 105.259 60.6142 105.274 60.5418 105.274C60.3916 105.274 60.2772 105.219 60.1989 105.108C60.1205 104.998 60.0813 104.85 60.0813 104.663C60.0813 104.46 60.1235 104.308 60.2078 104.21C60.2921 104.111 60.4013 104.062 60.5353 104.062C60.6088 104.062 60.6724 104.076 60.7259 104.105C60.7794 104.134 60.8221 104.172 60.854 104.22C60.8859 104.267 60.9067 104.319 60.9164 104.374H61.2164C61.2034 104.257 61.1667 104.155 61.1061 104.067C61.0456 103.979 60.9664 103.911 60.8686 103.861C60.7707 103.812 60.6591 103.787 60.5337 103.787C60.3705 103.787 60.2302 103.824 60.1129 103.898C59.9956 103.971 59.9062 104.074 59.8445 104.207C59.7829 104.339 59.7521 104.492 59.7521 104.666C59.7521 104.852 59.7854 105.009 59.8518 105.139C59.9183 105.268 60.0105 105.366 60.1283 105.433C60.2462 105.499 60.3813 105.533 60.5337 105.533ZM61.8977 105.003V105.5H61.5507V103.085H61.8977V104.621L62.6388 103.82H63.028L62.4215 104.468L63.0636 105.5H62.7037L62.1994 104.689L61.8977 105.003ZM63.7172 103.495V103.152H63.3686V103.495H63.7172ZM63.7107 103.82V105.5H63.3767V103.82H63.7107ZM64.5249 105.5V104.39C64.5249 104.321 64.5438 104.263 64.5816 104.217C64.6195 104.171 64.6692 104.137 64.7308 104.114C64.7924 104.091 64.8573 104.08 64.9254 104.08C65.027 104.08 65.11 104.109 65.1743 104.168C65.2386 104.226 65.2708 104.315 65.2708 104.436V105.5H65.6178V104.398C65.6178 104.259 65.5908 104.145 65.5367 104.056C65.4827 103.968 65.4111 103.903 65.3219 103.861C65.2327 103.82 65.1357 103.799 65.0308 103.799C64.9422 103.799 64.864 103.811 64.7965 103.836C64.7289 103.861 64.6722 103.893 64.6262 103.934C64.5803 103.974 64.5438 104.016 64.5168 104.062V103.82H64.1779V105.5H64.5249ZM67.3747 105.909C67.2352 106.007 67.0233 106.056 66.739 106.056C66.4666 106.056 66.2558 106.018 66.1066 105.941C65.9574 105.865 65.8828 105.758 65.8828 105.622C65.8828 105.562 65.8972 105.512 65.9258 105.47C65.9544 105.428 65.9885 105.394 66.028 105.367C66.0674 105.34 66.1039 105.318 66.1374 105.303C66.1709 105.287 66.1925 105.276 66.2023 105.269L66.1317 105.228C66.1031 105.211 66.0774 105.188 66.0547 105.16C66.032 105.131 66.0207 105.093 66.0207 105.047C66.0207 104.993 66.0463 104.942 66.0977 104.896C66.149 104.85 66.2261 104.816 66.3288 104.795C66.2271 104.745 66.1485 104.678 66.0928 104.593C66.0371 104.509 66.0093 104.419 66.0093 104.324C66.0093 104.214 66.0401 104.12 66.1017 104.04C66.1634 103.96 66.2501 103.899 66.362 103.857C66.4739 103.815 66.6055 103.794 66.7568 103.794C66.8671 103.794 66.9595 103.806 67.0341 103.831C67.1087 103.856 67.1774 103.891 67.2401 103.935C67.2606 103.928 67.2898 103.916 67.3276 103.9C67.3655 103.885 67.4074 103.867 67.4533 103.849C67.4993 103.831 67.543 103.813 67.5847 103.795L67.686 103.753L67.6844 104.055L67.3925 104.109C67.4076 104.142 67.4198 104.177 67.429 104.216C67.4382 104.255 67.4428 104.291 67.4428 104.324C67.4428 104.421 67.4163 104.511 67.3633 104.593C67.3103 104.674 67.2309 104.74 67.1249 104.788C67.019 104.837 66.8866 104.861 66.7277 104.861C66.7125 104.861 66.6931 104.861 66.6693 104.861C66.6455 104.86 66.6255 104.859 66.6093 104.857C66.5087 104.86 66.4396 104.871 66.4017 104.892C66.3639 104.912 66.345 104.933 66.345 104.957C66.345 104.988 66.3693 105.008 66.4179 105.019C66.4666 105.03 66.5466 105.039 66.6579 105.047C66.6979 105.05 66.749 105.053 66.8112 105.056C66.8733 105.06 66.9422 105.064 67.0179 105.069C67.2017 105.08 67.342 105.126 67.4387 105.208C67.5355 105.289 67.5838 105.397 67.5838 105.531C67.5838 105.685 67.5141 105.811 67.3747 105.909ZM66.7374 104.649C66.6174 104.649 66.5242 104.62 66.4577 104.564C66.3912 104.508 66.3579 104.43 66.3579 104.33C66.3579 104.225 66.3928 104.143 66.4625 104.085C66.5323 104.026 66.6239 103.997 66.7374 103.997C66.8498 103.997 66.9404 104.026 67.009 104.084C67.0776 104.142 67.112 104.224 67.112 104.33C67.112 104.433 67.0776 104.512 67.009 104.567C66.9404 104.621 66.8498 104.649 66.7374 104.649ZM66.3652 105.776C66.4588 105.82 66.6033 105.843 66.799 105.843C66.9471 105.843 67.0587 105.822 67.1339 105.779C67.209 105.736 67.2466 105.672 67.2466 105.588C67.2466 105.525 67.2222 105.474 67.1736 105.433C67.1249 105.393 67.0525 105.37 66.9563 105.364L66.5088 105.334C66.4644 105.332 66.4204 105.342 66.3766 105.364C66.3328 105.385 66.2966 105.415 66.2679 105.454C66.2393 105.492 66.225 105.535 66.225 105.581C66.225 105.666 66.2717 105.731 66.3652 105.776Z" fill="white"/>
<path id="$2,810.55" fill-rule="evenodd" clip-rule="evenodd" d="M49.3566 114.856V115.733H48.4624V114.856L48.3322 114.841C47.8604 114.778 47.4552 114.636 47.1165 114.414C46.6424 114.105 46.3637 113.641 46.2803 113.022L47.3181 112.971C47.4076 113.33 47.5945 113.6 47.8787 113.781C48.1628 113.962 48.5118 114.052 48.9257 114.052C49.1728 114.052 49.4029 114.01 49.6161 113.925C49.8292 113.84 50.0006 113.721 50.1303 113.569C50.26 113.418 50.3249 113.241 50.3249 113.04C50.3249 112.755 50.2392 112.533 50.0678 112.372C49.8964 112.211 49.6284 112.084 49.2639 111.991L48.1242 111.703C47.6239 111.582 47.2262 111.382 46.9312 111.102C46.6362 110.822 46.4872 110.445 46.4841 109.971C46.481 109.575 46.5853 109.228 46.7969 108.931C47.0084 108.634 47.3011 108.403 47.6748 108.237L47.8013 108.185C48.0154 108.103 48.2458 108.047 48.4923 108.016L48.5088 108.015V107.079H49.4076V108.019L49.5447 108.041C49.7749 108.085 49.9847 108.155 50.1743 108.253C50.5156 108.43 50.7797 108.664 50.9666 108.957C51.1534 109.249 51.2515 109.569 51.2608 109.916L50.2554 109.957C50.1936 109.586 50.0601 109.302 49.8547 109.105C49.6493 108.909 49.3504 108.811 48.9582 108.811C48.7698 108.811 48.5906 108.834 48.4207 108.88C48.2509 108.927 48.1011 108.995 47.9713 109.084C47.8416 109.174 47.7389 109.285 47.6632 109.416C47.5876 109.548 47.5497 109.699 47.5497 109.869C47.5497 110.098 47.6293 110.279 47.7883 110.412C47.9474 110.545 48.237 110.674 48.657 110.798L49.7643 111.099C50.3419 111.254 50.7558 111.5 51.006 111.838C51.2561 112.175 51.3812 112.571 51.3812 113.026C51.3812 113.391 51.2793 113.713 51.0755 113.992C50.8716 114.271 50.5851 114.488 50.216 114.644L50.0908 114.693C49.8784 114.771 49.6477 114.824 49.3986 114.853L49.3566 114.856ZM56.9299 113.922V114.786H52.3246V113.927C52.3246 113.586 52.3887 113.291 52.5169 113.04C52.6451 112.789 52.8142 112.57 53.0242 112.383C53.2343 112.196 53.4651 112.03 53.7169 111.884C53.9686 111.739 54.2195 111.599 54.4697 111.466C54.7199 111.333 54.95 111.195 55.16 111.051C55.3701 110.907 55.5392 110.744 55.6674 110.563C55.7955 110.382 55.8596 110.169 55.8596 109.925C55.8596 109.603 55.7469 109.341 55.5214 109.14C55.296 108.939 54.9902 108.838 54.6041 108.838C54.1933 108.838 53.8597 108.954 53.6034 109.187C53.347 109.419 53.1987 109.739 53.1586 110.148H52.1856C52.1949 109.748 52.2922 109.385 52.4775 109.057C52.6628 108.728 52.9362 108.467 53.2976 108.272C53.6589 108.077 54.1068 107.979 54.6412 107.979C55.1045 107.979 55.5052 108.061 55.8434 108.223C56.1816 108.386 56.4434 108.612 56.6287 108.903C56.814 109.194 56.9067 109.533 56.9067 109.92C56.9067 110.264 56.8434 110.559 56.7167 110.807C56.5901 111.055 56.4241 111.268 56.2187 111.448C56.0133 111.627 55.7871 111.786 55.54 111.924C55.2929 112.061 55.0458 112.193 54.7987 112.318C54.5516 112.444 54.3246 112.575 54.1176 112.713C53.9107 112.851 53.7439 113.006 53.6173 113.179C53.4906 113.353 53.4273 113.562 53.4273 113.806V113.922H56.9299ZM58.0797 115.988L58.9044 114.642V113.676H57.7554V114.781L58.177 114.809L57.6535 115.988H58.0797ZM63.8195 114.649C63.4303 114.808 62.9732 114.888 62.4481 114.888C61.9292 114.888 61.4752 114.808 61.086 114.649C60.6968 114.49 60.3949 114.265 60.1802 113.976C59.9656 113.686 59.8582 113.347 59.8582 112.957C59.8582 112.697 59.9231 112.448 60.0528 112.211C60.1825 111.975 60.3493 111.774 60.5532 111.61C60.757 111.446 60.9686 111.342 61.1879 111.299C60.8914 111.169 60.6443 110.981 60.4466 110.735C60.2489 110.489 60.1501 110.186 60.1501 109.827C60.1501 109.431 60.2513 109.096 60.4536 108.822C60.6559 108.548 60.9308 108.339 61.2783 108.195C61.6257 108.051 62.0157 107.979 62.4481 107.979C62.8867 107.979 63.2789 108.051 63.6249 108.195C63.9708 108.339 64.2442 108.548 64.4449 108.822C64.6457 109.096 64.7461 109.431 64.7461 109.827C64.7461 110.186 64.6496 110.489 64.4565 110.735C64.2635 110.981 64.0156 111.169 63.7129 111.299C63.9353 111.342 64.1476 111.446 64.3499 111.61C64.5523 111.774 64.719 111.975 64.8503 112.211C64.9816 112.448 65.0472 112.697 65.0472 112.957C65.0472 113.347 64.9399 113.686 64.7252 113.976C64.5106 114.265 64.2086 114.49 63.8195 114.649ZM62.4481 110.891C62.0713 110.891 61.7624 110.795 61.5215 110.603C61.2806 110.411 61.1601 110.145 61.1601 109.804C61.1601 109.464 61.2806 109.194 61.5215 108.994C61.7624 108.794 62.0713 108.694 62.4481 108.694C62.828 108.694 63.1384 108.793 63.3793 108.992C63.6202 109.19 63.7407 109.461 63.7407 109.804C63.7407 110.145 63.621 110.411 63.3816 110.603C63.1423 110.795 62.8311 110.891 62.4481 110.891ZM61.3385 113.785C61.6149 113.997 61.9848 114.103 62.4481 114.103C62.9176 114.103 63.2905 113.997 63.567 113.785C63.8434 113.573 63.9816 113.292 63.9816 112.943C63.9816 112.711 63.9191 112.504 63.794 112.323C63.6689 112.142 63.4921 111.999 63.2635 111.896C63.0349 111.792 62.7631 111.74 62.4481 111.74C62.1392 111.74 61.8705 111.792 61.6419 111.896C61.4134 111.999 61.2366 112.142 61.1115 112.323C60.9864 112.504 60.9238 112.711 60.9238 112.943C60.9238 113.292 61.062 113.573 61.3385 113.785ZM68.0439 114.786V108.072H67.3536C67.3412 108.255 67.2849 108.409 67.1845 108.534C67.0841 108.66 66.9204 108.754 66.6934 108.817C66.4664 108.881 66.1552 108.913 65.7598 108.913V109.53H67.0293V114.786H68.0439ZM73.68 114.013C73.2429 114.596 72.6476 114.888 71.894 114.888C71.1372 114.888 70.5411 114.598 70.1056 114.017C69.6701 113.437 69.4524 112.582 69.4524 111.452C69.4524 110.694 69.5527 110.057 69.7535 109.542C69.9543 109.026 70.2377 108.637 70.6037 108.374C70.9697 108.111 71.4013 107.979 71.8986 107.979C72.643 107.979 73.2352 108.273 73.6754 108.859C74.1155 109.446 74.3356 110.307 74.3356 111.443C74.3356 112.573 74.117 113.429 73.68 114.013ZM71.8986 114.043C71.4415 114.043 71.0948 113.84 70.8585 113.435C70.6222 113.029 70.5041 112.367 70.5041 111.448C70.5041 110.513 70.623 109.837 70.8608 109.421C71.0986 109.005 71.443 108.797 71.894 108.797C72.348 108.797 72.6908 109.003 72.9225 109.416C73.1541 109.83 73.27 110.507 73.27 111.448C73.27 112.37 73.1557 113.033 72.9271 113.437C72.6986 113.841 72.3557 114.043 71.8986 114.043ZM76.2644 113.588V114.786H75.12V113.588H76.2644ZM79.7791 114.888C80.2825 114.888 80.7204 114.794 81.0926 114.605C81.4647 114.416 81.7528 114.15 81.9566 113.806C82.1605 113.463 82.2624 113.057 82.2624 112.59C82.2624 112.116 82.1589 111.718 81.952 111.394C81.745 111.071 81.4694 110.826 81.125 110.658C80.7806 110.491 80.3999 110.408 79.9829 110.408C79.6864 110.408 79.4115 110.449 79.1583 110.531C78.905 110.613 78.6641 110.747 78.4355 110.932L78.593 108.913H81.8223L81.8547 108.072H77.773L77.4672 111.541L78.2595 111.828C78.2903 111.844 78.3112 111.852 78.322 111.852C78.3328 111.852 78.3506 111.845 78.3753 111.833C78.539 111.666 78.6942 111.54 78.8409 111.455C78.9876 111.37 79.1351 111.312 79.2834 111.283C79.4316 111.253 79.5907 111.239 79.7606 111.239C80.0324 111.239 80.2779 111.297 80.4972 111.413C80.7165 111.529 80.891 111.691 81.0207 111.898C81.1505 112.105 81.2153 112.347 81.2153 112.622C81.2153 113.065 81.0763 113.415 80.7984 113.674C80.5204 113.932 80.1544 114.062 79.7003 114.062C79.4131 114.062 79.1583 114.008 78.9359 113.901C78.7135 113.795 78.5205 113.646 78.3568 113.456C78.1931 113.265 78.0556 113.049 77.9444 112.808L77.1151 113.203C77.2386 113.534 77.4294 113.826 77.6873 114.078C77.9452 114.33 78.2533 114.528 78.6116 114.672C78.9699 114.816 79.359 114.888 79.7791 114.888ZM86.9684 114.605C86.5962 114.794 86.1584 114.888 85.6549 114.888C85.2349 114.888 84.8457 114.816 84.4874 114.672C84.1291 114.528 83.821 114.33 83.5631 114.078C83.3052 113.826 83.1145 113.534 82.9909 113.203L83.8202 112.808C83.9314 113.049 84.0689 113.265 84.2326 113.456C84.3963 113.646 84.5893 113.795 84.8117 113.901C85.0341 114.008 85.2889 114.062 85.5762 114.062C86.0302 114.062 86.3962 113.932 86.6742 113.674C86.9522 113.415 87.0912 113.065 87.0912 112.622C87.0912 112.347 87.0263 112.105 86.8966 111.898C86.7669 111.691 86.5923 111.529 86.373 111.413C86.1538 111.297 85.9082 111.239 85.6364 111.239C85.4665 111.239 85.3074 111.253 85.1592 111.283C85.0109 111.312 84.8635 111.37 84.7167 111.455C84.57 111.54 84.4148 111.666 84.2511 111.833C84.2264 111.845 84.2086 111.852 84.1978 111.852C84.187 111.852 84.1662 111.844 84.1353 111.828L83.343 111.541L83.6488 108.072H87.7305L87.6981 108.913H84.4689L84.3113 110.932C84.5399 110.747 84.7808 110.613 85.0341 110.531C85.2874 110.449 85.5623 110.408 85.8588 110.408C86.2758 110.408 86.6564 110.491 87.0008 110.658C87.3452 110.826 87.6209 111.071 87.8278 111.394C88.0348 111.718 88.1382 112.116 88.1382 112.59C88.1382 113.057 88.0363 113.463 87.8325 113.806C87.6286 114.15 87.3406 114.416 86.9684 114.605Z" fill="white"/>
</g>
<g id="Group 12">
<rect id="Rectangle_3" x="70.3071" y="74.1497" width="19.4587" height="11.1429" rx="5.57143" fill="url(#paint5_linear_0_2730)"/>
<g id="Group 11">
<g id="Group 10 Copy">
<path id="Path 5" fill-rule="evenodd" clip-rule="evenodd" d="M80.341 77.6221L78.1836 82.0425H79.5051L81.6625 77.6221H80.341Z" fill="white"/>
</g>
<path id="Path 5_2" fill-rule="evenodd" clip-rule="evenodd" d="M77.4726 79.2568L76.7935 80.4389H82.748L83.4272 79.2568H77.4726Z" fill="white"/>
</g>
</g>
</g>
</g>
</g>
</g>
</g>
</g>
</g>
<defs>
<filter id="filter0_d_0_2730" x="0.0219727" y="-66.778" width="159.806" height="254.556" filterUnits="userSpaceOnUse" color-interpolation-filters="sRGB">
<feFlood flood-opacity="0" result="BackgroundImageFix"/>
<feColorMatrix in="SourceAlpha" type="matrix" values="0 0 0 0 0 0 0 0 0 0 0 0 0 0 0 0 0 0 127 0" result="hardAlpha"/>
<feOffset dy="20"/>
<feGaussianBlur stdDeviation="15"/>
<feColorMatrix type="matrix" values="0 0 0 0 0 0 0 0 0 0 0 0 0 0 0 0 0 0 0.15 0"/>
<feBlend mode="normal" in2="BackgroundImageFix" result="effect1_dropShadow_0_2730"/>
<feBlend mode="normal" in="SourceGraphic" in2="effect1_dropShadow_0_2730" result="shape"/>
</filter>
<filter id="filter1_d_0_2730" x="14.8848" y="52.2144" width="130.107" height="131" filterUnits="userSpaceOnUse" color-interpolation-filters="sRGB">
<feFlood flood-opacity="0" result="BackgroundImageFix"/>
<feColorMatrix in="SourceAlpha" type="matrix" values="0 0 0 0 0 0 0 0 0 0 0 0 0 0 0 0 0 0 127 0" result="hardAlpha"/>
<feOffset dy="2"/>
<feGaussianBlur stdDeviation="10"/>
<feColorMatrix type="matrix" values="0 0 0 0 0 0 0 0 0 0 0 0 0 0 0 0 0 0 0.153846 0"/>
<feBlend mode="normal" in2="BackgroundImageFix" result="effect1_dropShadow_0_2730"/>
<feBlend mode="normal" in="SourceGraphic" in2="effect1_dropShadow_0_2730" result="shape"/>
</filter>
<linearGradient id="paint0_linear_0_2730" x1="33.3452" y1="137.771" x2="33.3452" y2="133.447" gradientUnits="userSpaceOnUse">
<stop stop-color="#454545"/>
<stop offset="0.226279" stop-color="#999999"/>
<stop offset="1" stop-color="white"/>
</linearGradient>
<linearGradient id="paint1_linear_0_2730" x1="112.366" y1="136.961" x2="112.366" y2="139.672" gradientUnits="userSpaceOnUse">
<stop stop-color="white" stop-opacity="0.01"/>
<stop offset="1" stop-color="white" stop-opacity="0.55"/>
</linearGradient>
<linearGradient id="paint2_linear_0_2730" x1="129.784" y1="-24.1499" x2="126.085" y2="-24.1499" gradientUnits="userSpaceOnUse">
<stop/>
<stop offset="0.222178" stop-color="#BABABA"/>
<stop offset="0.54678" stop-color="#000108"/>
<stop offset="1" stop-color="#060606"/>
</linearGradient>
<linearGradient id="paint3_linear_0_2730" x1="30.022" y1="-24.1499" x2="33.7209" y2="-24.1499" gradientUnits="userSpaceOnUse">
<stop/>
<stop offset="0.222178" stop-color="#BABABA"/>
<stop offset="0.54678" stop-color="#000108"/>
<stop offset="1" stop-color="#060606"/>
</linearGradient>
<linearGradient id="paint4_linear_0_2730" x1="0.417412" y1="107.295" x2="19.7906" y2="159.25" gradientUnits="userSpaceOnUse">
<stop stop-color="#33D35E"/>
<stop offset="1" stop-color="#2AB6D9"/>
</linearGradient>
<linearGradient id="paint5_linear_0_2730" x1="60.6186" y1="79.6977" x2="70.1886" y2="96.4097" gradientUnits="userSpaceOnUse">
<stop stop-color="#33D35E"/>
<stop offset="1" stop-color="#2AB6D9"/>
</linearGradient>
</defs>
</svg>
